<?xml version="1.0" standalone="no"?>
<!DOCTYPE svg PUBLIC "-//W3C//DTD SVG 20010904//EN"
 "http://www.w3.org/TR/2001/REC-SVG-20010904/DTD/svg10.dtd">
<svg version="1.0" xmlns="http://www.w3.org/2000/svg"
 width="500.000000pt" height="500.000000pt" viewBox="0 0 500.000000 500.000000"
 preserveAspectRatio="xMidYMid meet">
<metadata>
Created by potrace 1.14, written by Peter Selinger 2001-2017
</metadata>
<g transform="translate(0.000000,500.000000) scale(0.100000,-0.100000)"
fill="#000000" stroke="none">
<path d="M4050 3970 c0 -5 5 -10 11 -10 5 0 7 5 4 10 -3 6 -8 10 -11 10 -2 0
-4 -4 -4 -10z"/>
<path d="M4053 3923 c-14 -38 -63 -47 -63 -12 0 18 -2 20 -16 8 -10 -8 -14
-24 -12 -46 4 -36 -3 -41 -26 -18 -24 24 -44 18 -51 -16 l-7 -32 -21 37 c-12
20 -25 36 -30 36 -14 0 -3 -53 17 -83 19 -27 19 -28 -3 -48 -11 -11 -21 -27
-21 -37 0 -15 -1 -15 -16 0 -15 15 -15 18 0 39 18 26 22 64 6 54 -10 -6 -14
13 -11 46 3 25 -27 31 -39 9 -6 -11 -7 -20 -3 -20 4 0 2 -5 -4 -11 -17 -17
-41 9 -35 38 6 32 -4 54 -23 47 -8 -3 -12 -10 -9 -15 3 -5 1 -9 -5 -9 -5 0
-11 6 -13 12 -3 7 -7 2 -10 -10 -4 -12 -2 -20 3 -16 5 3 9 1 9 -4 0 -6 -7 -12
-15 -16 -9 -3 -15 0 -15 9 0 7 -5 26 -10 40 -8 21 -13 25 -24 16 -7 -6 -16 -8
-19 -4 -4 3 -7 0 -7 -8 -1 -10 -5 -8 -15 5 -10 13 -19 16 -25 10 -11 -11 -2
-54 11 -54 5 0 9 -7 9 -17 0 -15 -1 -15 -18 0 -27 25 -62 11 -62 -24 0 -16 5
-29 10 -29 6 0 10 -9 10 -21 0 -19 -1 -19 -22 4 -22 23 -24 23 -42 6 -14 -14
-23 -16 -32 -8 -10 8 -13 4 -16 -18 l-3 -28 -22 35 c-21 34 -22 34 -27 10 -6
-33 -4 -60 5 -60 4 0 10 -17 14 -37 4 -21 10 -42 14 -48 14 -18 21 -46 11 -40
-6 3 -10 12 -10 18 0 7 -12 17 -28 23 -24 9 -27 16 -29 58 -1 26 -5 51 -8 56
-11 18 -26 10 -20 -9 3 -11 1 -22 -5 -26 -6 -4 -8 -15 -5 -25 3 -11 0 -20 -10
-24 -13 -5 -14 -10 -5 -27 6 -11 9 -27 6 -34 -2 -7 2 -19 10 -25 16 -14 19
-70 4 -70 -5 0 -17 14 -25 30 -9 17 -20 28 -25 25 -13 -8 -13 -35 -1 -35 16 0
23 -34 8 -45 -13 -10 -32 -62 -28 -78 1 -5 -2 -6 -7 -3 -4 2 -14 28 -22 56 -8
28 -20 56 -27 62 -7 6 -13 16 -13 24 0 7 -4 15 -9 18 -5 4 -7 -3 -4 -14 3 -11
1 -20 -5 -20 -10 0 -9 -26 4 -70 7 -24 7 -24 -13 -7 -29 25 -43 21 -43 -13 0
-16 -4 -30 -9 -30 -5 0 -7 9 -4 20 4 14 0 20 -12 20 -19 0 -38 17 -49 45 -7
19 -8 19 -17 3 -11 -19 -49 -25 -49 -8 0 6 -5 10 -10 10 -16 0 1 -52 26 -79
27 -29 17 -51 -20 -44 -14 3 -45 -3 -70 -12 -31 -12 -57 -15 -83 -11 -86 15
-135 18 -146 7 -6 -6 -19 -11 -29 -11 -10 0 -21 -7 -24 -15 -7 -17 -25 -21
-21 -4 1 7 -13 16 -30 21 -18 5 -33 13 -33 19 0 6 4 8 9 5 5 -3 11 8 13 24 3
17 1 30 -4 30 -15 0 -8 15 27 55 19 22 29 42 23 44 -5 2 -13 -1 -17 -7 -8 -14
-44 -9 -49 6 -2 7 -14 12 -27 12 -12 0 -25 7 -29 15 -14 37 -67 6 -80 -47 -3
-16 -10 -28 -15 -28 -12 0 -38 26 -51 51 -6 10 -19 19 -28 19 -10 0 -23 5 -30
12 -9 9 -12 8 -12 -4 0 -11 -13 -18 -42 -23 -24 -4 -53 -13 -65 -21 -12 -8
-25 -14 -28 -14 -12 0 -4 38 10 50 23 19 12 23 -54 22 -51 0 -60 2 -64 20 -4
15 -11 19 -26 15 -12 -3 -23 -1 -26 4 -3 4 -12 6 -20 3 -8 -3 -27 1 -43 8 -26
14 -29 13 -39 -8 -8 -17 -7 -26 6 -39 15 -15 15 -17 -1 -26 -10 -6 -18 -21
-18 -34 0 -14 -5 -25 -11 -25 -7 0 -9 9 -6 21 5 20 5 20 -15 2 -20 -18 -20
-18 -17 11 l4 28 -70 2 c-67 1 -95 -9 -95 -33 0 -7 -8 -7 -26 0 -32 12 -42 5
-24 -16 10 -13 10 -19 -4 -33 -9 -10 -16 -27 -16 -38 0 -11 -10 -24 -22 -29
-19 -9 -28 -5 -57 22 -24 24 -44 33 -67 33 -27 0 -31 -3 -27 -20 3 -13 -1 -22
-12 -26 -9 -4 -34 -25 -54 -46 l-36 -40 -32 18 c-27 16 -38 17 -74 7 -30 -8
-49 -8 -62 -1 -11 5 -30 8 -44 5 -14 -2 -37 0 -51 5 -19 7 -36 6 -57 -2 -16
-7 -48 -14 -70 -14 -22 -1 -56 -9 -75 -17 -20 -9 -50 -14 -68 -11 -20 3 -42
-2 -59 -13 -25 -17 -59 -21 -190 -24 -31 -1 -43 -5 -43 -16 0 -9 -9 -15 -25
-15 -14 0 -25 5 -25 10 0 15 -40 12 -46 -3 -6 -16 -86 -16 -106 0 -16 14 -68
9 -136 -13 -23 -8 -46 -13 -50 -13 -44 7 -42 18 -42 -316 l0 -315 38 -2 c20
-1 48 -1 62 -1 40 2 152 2 337 0 156 -1 172 -3 176 -19 3 -10 1 -16 -3 -13
-13 8 -40 -6 -40 -21 0 -29 -90 -54 -117 -32 -23 19 -14 23 44 21 54 -2 56 -2
31 10 -28 13 -142 15 -188 3 -14 -3 -19 -4 -12 0 32 15 3 22 -97 23 -65 1
-112 -3 -116 -9 -4 -6 25 -10 84 -10 49 0 92 -4 96 -9 3 -5 -3 -17 -12 -27
-17 -17 -17 -18 0 -11 22 9 44 15 34 10 -4 -3 -5 -9 -1 -14 3 -5 -13 -9 -36
-9 -26 0 -39 4 -35 10 4 7 -7 8 -34 4 -25 -4 -46 -2 -54 5 -8 6 -16 9 -19 6
-2 -3 -34 -1 -71 3 l-67 8 0 -34 0 -34 118 6 c64 3 135 8 157 11 55 8 56 8
181 0 96 -7 115 -6 135 9 l24 16 -32 -6 c-20 -4 -33 -2 -33 4 0 5 15 9 33 8
25 -2 31 -6 29 -20 -3 -15 1 -17 20 -13 22 5 86 13 318 37 52 6 112 12 133 14
48 6 48 -10 -2 -30 -32 -13 -37 -19 -33 -39 3 -20 12 -25 48 -31 24 -3 42 -10
39 -14 -3 -5 20 -8 51 -8 32 0 60 -5 67 -12 10 -10 1 -11 -43 -6 -30 3 -70 6
-88 6 -18 0 -31 4 -28 8 4 7 -53 14 -313 37 -19 2 -64 7 -100 10 -78 8 -379 7
-392 -1 -5 -3 -72 -5 -149 -5 l-140 0 0 -133 0 -134 133 -10 132 -10 -132 5
-133 5 0 -101 0 -101 43 -1 c23 0 65 -5 92 -9 38 -7 28 -8 -42 -4 l-93 6 0
-185 c0 -183 0 -185 23 -191 12 -3 33 -6 47 -6 14 0 32 -5 40 -11 11 -7 -2 -9
-48 -7 l-62 4 0 -773 0 -773 1005 0 1005 0 2 53 c1 41 2 45 6 17 4 -29 6 -32
12 -15 8 18 9 18 9 1 1 -12 6 -16 16 -12 8 3 15 1 15 -5 0 -32 26 -35 280 -37
140 -2 251 1 245 5 -5 4 -11 17 -13 28 -2 11 -10 35 -18 53 -9 18 -14 47 -12
64 2 20 -2 33 -11 36 -8 3 -11 0 -7 -7 4 -6 2 -11 -3 -11 -15 0 -14 13 3 36
16 22 5 44 -23 44 -9 0 -22 5 -29 12 -14 14 2 48 23 48 21 0 19 -27 -2 -34
-11 -3 -8 -4 7 -3 33 3 37 30 5 47 -29 16 -32 27 -7 33 15 4 -30 11 -50 8 -5
0 -8 4 -8 9 0 6 11 10 25 10 32 0 32 18 0 26 -20 5 -23 9 -14 20 9 11 9 14 0
14 -8 0 -10 8 -6 20 4 11 2 20 -4 20 -6 0 -11 5 -11 11 0 6 7 8 16 5 26 -10
37 4 18 25 -9 10 -13 19 -8 19 5 0 -3 8 -16 17 l-25 18 35 6 c35 6 35 6 10 16
l-25 11 25 10 25 11 -27 0 c-24 1 -26 4 -24 34 2 17 0 37 -4 42 -19 27 -18 47
2 67 l21 21 -31 -5 c-18 -2 -34 0 -36 6 -3 7 -8 5 -15 -4 -15 -22 -24 -5 -9
19 13 22 28 28 28 12 0 -11 38 -21 56 -14 10 4 11 8 1 18 -7 7 -15 11 -18 9
-3 -1 -3 11 -1 28 5 30 4 31 -26 25 -17 -4 -34 -2 -37 3 -3 6 2 10 11 10 10 0
15 2 12 5 -3 4 -17 3 -32 -1 l-26 -6 25 -20 c14 -11 23 -24 20 -29 -9 -14 -25
-11 -25 6 0 17 -11 19 -26 6 -5 -5 -18 -5 -29 -1 -19 8 -19 9 3 9 12 1 22 4
22 9 0 4 -19 6 -41 4 -23 -3 -37 -7 -31 -11 13 -8 7 -70 -7 -84 -6 -6 -4 -18
5 -32 13 -21 13 -23 -6 -28 -13 -3 -18 -10 -14 -21 3 -9 1 -16 -5 -16 -13 0
-10 -22 4 -32 6 -5 6 -8 -1 -8 -18 0 -28 -52 -12 -61 18 -12 30 -11 23 1 -3 5
0 7 9 4 12 -5 12 -9 3 -19 -9 -9 -16 -9 -29 -2 -9 6 -21 8 -25 4 -4 -5 -1 -12
6 -16 11 -7 9 -13 -8 -30 -17 -17 -20 -26 -12 -35 8 -10 7 -17 -4 -26 -8 -7
-15 -21 -15 -32 0 -14 -5 -18 -15 -14 -13 5 -13 1 1 -26 l17 -32 -27 17 c-22
15 -26 15 -26 2 0 -8 5 -15 10 -15 6 0 10 -8 10 -17 0 -14 -3 -14 -20 5 -11
12 -20 27 -20 34 0 8 -4 6 -11 -4 -8 -14 -14 -15 -34 -6 -33 15 -37 33 -13 55
12 10 18 12 14 5 -7 -12 -4 -12 14 -2 12 6 19 14 16 17 -3 3 2 13 12 22 28 26
62 79 62 97 0 9 6 22 14 28 19 15 42 186 25 186 -19 0 -8 19 14 23 21 4 21 4
-3 6 -21 1 -22 3 -10 12 13 9 12 10 -2 5 -19 -6 -25 9 -8 19 5 3 7 12 3 20 -3
8 0 15 5 15 6 0 12 -6 15 -12 2 -7 2 -2 0 10 -2 13 1 30 7 37 8 9 5 14 -9 18
-14 3 -18 1 -14 -9 3 -8 -1 -14 -8 -14 -12 0 -12 -2 0 -9 9 -6 10 -11 2 -15
-6 -4 -11 -14 -11 -23 0 -9 -8 -22 -17 -29 -17 -13 -17 -13 0 -14 34 0 15 -35
-21 -38 -17 -2 -32 -7 -32 -13 0 -5 -7 -9 -15 -9 -8 0 -15 5 -15 10 0 6 5 10
10 10 6 0 10 9 10 20 0 12 7 20 16 20 16 0 44 23 44 35 0 4 -6 5 -14 2 -21 -8
-30 25 -11 36 13 7 14 11 3 25 -11 13 -11 15 5 9 21 -8 22 -3 1 17 -18 19 -37
21 -32 4 2 -6 -4 -20 -14 -30 -10 -10 -16 -24 -12 -30 5 -7 0 -9 -14 -6 -15 4
-22 2 -22 -8 0 -8 3 -14 8 -14 4 0 7 -11 7 -24 0 -27 -23 -29 -49 -3 -17 16
-16 17 3 17 12 0 21 5 21 10 0 6 -4 10 -10 10 -14 0 -12 37 3 43 9 4 9 6 0 6
-7 1 -13 11 -12 24 0 12 3 16 6 10 2 -7 12 -13 21 -12 11 0 12 2 5 6 -7 2 -13
11 -13 19 0 8 6 11 15 8 8 -4 15 -1 15 5 0 6 -9 11 -20 11 -11 0 -20 5 -20 10
0 6 7 10 15 10 8 0 15 5 15 10 0 7 -6 7 -20 0 -11 -6 -20 -7 -20 -2 0 10 34
28 75 38 24 6 26 8 10 12 -11 2 -26 13 -33 23 -19 28 -42 24 -42 -7 0 -14 4
-23 10 -19 5 3 10 1 10 -5 0 -7 -7 -10 -15 -6 -8 3 -19 -2 -24 -12 -9 -15 -10
-14 -8 5 0 12 5 19 9 17 4 -3 8 8 8 23 0 17 -8 33 -20 41 -13 8 -20 8 -20 1 0
-5 -4 -8 -8 -5 -5 3 -15 -10 -22 -29 -16 -40 -50 -55 -50 -22 0 38 -12 66 -29
72 -10 3 -26 24 -36 48 -18 40 -45 77 -45 61 0 -9 53 -117 61 -124 3 -3 9 -17
13 -32 7 -31 -4 -37 -24 -13 -18 21 -40 19 -40 -5 0 -11 7 -20 15 -20 8 0 15
-8 15 -17 0 -9 7 -25 17 -35 23 -25 10 -33 -21 -12 -41 26 -44 8 -6 -31 l34
-35 -27 0 c-39 0 -33 -19 13 -38 48 -20 51 -38 9 -56 -31 -13 -26 -32 5 -20
11 4 16 1 16 -10 0 -11 -7 -15 -22 -13 -13 2 -34 -2 -47 -9 -22 -11 -22 -12
18 -19 42 -7 53 -21 26 -31 -8 -4 -15 -15 -15 -25 0 -11 -9 -29 -19 -41 -11
-11 -17 -26 -15 -33 3 -7 1 -16 -5 -20 -6 -3 -11 1 -11 10 0 33 -18 53 -45 47
-21 -4 -23 -7 -14 -19 7 -7 18 -12 25 -9 7 3 15 -2 18 -10 9 -24 8 -26 -19
-22 -13 2 -24 0 -25 -4 0 -5 0 -12 0 -17 0 -13 98 -59 149 -70 58 -12 79 -32
25 -24 -21 3 -57 12 -79 19 -21 7 -41 11 -43 9 -11 -10 32 -37 66 -42 29 -4
38 -10 39 -25 2 -19 -2 -20 -50 -15 -34 4 -45 3 -32 -3 20 -9 20 -9 0 -9 -30
-1 -126 52 -120 67 5 14 -11 16 -20 2 -4 -6 -10 -6 -18 0 -7 6 -31 24 -54 40
-51 36 -53 50 -14 133 16 34 38 91 49 127 108 355 139 479 134 531 -3 37 1 51
20 75 13 16 36 48 52 71 36 54 79 87 147 112 30 11 90 33 135 49 135 50 254
113 271 145 10 20 12 20 18 5 4 -10 11 -18 16 -18 6 0 5 8 -1 19 -14 27 -13
41 5 41 8 0 15 7 15 16 0 10 6 14 15 10 10 -3 15 1 15 13 0 10 9 30 20 44 11
14 20 29 19 34 -6 33 2 53 21 50 11 -2 23 -6 26 -10 4 -4 29 -10 56 -13 26 -4
48 -12 48 -18 0 -16 44 -96 53 -96 10 0 57 -50 57 -60 0 -11 32 -43 67 -68 33
-23 127 -47 145 -36 5 3 5 11 -2 19 -6 7 -9 19 -8 26 2 8 -4 13 -14 11 -12 -2
-16 2 -12 11 3 8 -2 22 -11 31 -15 15 -15 16 2 17 13 1 11 3 -6 8 -13 3 -25
15 -27 26 -2 11 -8 21 -13 23 -6 2 -11 9 -11 15 0 6 -7 18 -15 27 -13 15 -10
23 31 79 l46 63 38 -37 c21 -21 36 -43 34 -50 -11 -27 61 -45 84 -20 4 4 1 5
-5 1 -8 -4 -13 -1 -13 8 0 20 20 21 45 3 16 -13 14 -15 -29 -28 -53 -15 -54
-27 -5 -52 21 -11 25 -15 10 -11 l-23 6 18 -31 c10 -17 29 -43 41 -57 13 -15
23 -33 23 -41 0 -7 7 -16 15 -19 8 -4 15 -10 15 -15 0 -5 12 -21 28 -36 32
-32 66 -77 42 -55 -17 15 -50 15 -70 1 -12 -8 -10 -9 9 -4 16 5 21 4 17 -4 -5
-7 -1 -8 10 -4 11 4 15 2 11 -4 -4 -6 4 -14 17 -17 14 -3 28 -15 31 -26 3 -11
10 -20 15 -20 5 0 28 -23 50 -51 28 -36 39 -57 34 -71 -7 -24 21 -69 40 -62 8
3 23 -3 33 -13 24 -25 55 -73 46 -73 -4 0 6 -13 21 -29 23 -24 25 -29 9 -28
-10 1 -22 8 -26 15 -4 6 -13 12 -18 12 -6 0 -8 -4 -5 -9 3 -5 -1 -11 -9 -14
-9 -4 -12 -1 -9 7 3 8 1 17 -4 20 -16 9 -21 -31 -9 -69 7 -23 16 -35 29 -35
11 0 18 -7 18 -20 0 -13 -5 -18 -15 -14 -8 4 -15 1 -15 -6 0 -6 8 -10 18 -9 9
1 20 0 25 -1 21 -7 33 -4 44 10 11 13 13 11 14 -10 l1 -25 11 28 c6 15 15 27
20 27 5 0 6 -7 3 -16 -3 -8 -2 -12 4 -9 6 3 10 1 10 -4 0 -6 7 -11 16 -11 25
0 6 -19 -29 -29 -26 -7 -28 -9 -9 -10 13 -1 20 -5 17 -11 -4 -6 -11 -7 -17 -4
-6 4 -13 1 -17 -5 -5 -8 -16 -3 -35 15 -15 15 -24 21 -21 13 4 -10 -3 -20 -18
-28 -29 -15 -31 -40 -6 -71 17 -21 19 -22 15 -5 -5 17 0 20 31 23 20 1 40 -3
44 -10 6 -9 11 -9 23 2 9 7 19 10 23 6 3 -3 0 -6 -7 -6 -33 0 6 -15 43 -17 23
-1 49 -2 58 -2 13 -1 22 -13 47 -63 2 -5 -3 -8 -12 -8 -9 0 -16 -5 -16 -11 0
-6 7 -9 15 -5 8 3 15 1 15 -4 0 -6 -8 -10 -17 -11 -13 0 -11 -3 7 -11 14 -6
30 -12 35 -12 6 -1 10 -9 10 -18 0 -10 -4 -18 -10 -18 -5 -1 -20 -7 -32 -15
-15 -10 -24 -11 -28 -4 -4 6 -13 8 -20 5 -7 -2 -12 1 -12 7 1 30 -4 47 -13 47
-5 0 -7 -7 -3 -17 5 -13 2 -15 -15 -11 -14 4 -22 2 -22 -7 0 -8 8 -11 21 -8
16 4 20 2 17 -8 -7 -20 39 -41 63 -28 11 5 24 7 29 4 5 -3 7 0 5 7 -4 9 4 14
25 16 16 1 30 -2 30 -7 0 -5 8 -18 18 -27 16 -17 16 -18 -1 -11 -10 4 -24 7
-30 7 -8 0 -7 3 2 9 8 5 9 11 3 15 -6 3 -14 1 -18 -5 -6 -11 13 -32 40 -43 7
-3 6 -8 -4 -15 -12 -8 -12 -13 -2 -23 14 -14 17 -42 3 -33 -5 3 -13 0 -16 -6
-4 -5 -13 -8 -21 -5 -8 3 -14 1 -14 -4 0 -6 7 -10 15 -10 8 0 15 -4 15 -10 0
-5 -6 -10 -14 -10 -8 0 -18 -5 -22 -12 -4 -7 -3 -8 4 -4 7 4 12 3 12 -3 0 -5
-8 -12 -17 -14 -14 -4 -13 -5 4 -6 15 -1 25 8 35 29 7 18 19 29 28 27 8 -1 21
9 28 23 7 14 10 17 7 7 -2 -10 2 -20 10 -23 15 -6 9 -34 -7 -34 -5 0 -7 4 -4
9 3 5 -6 9 -19 9 -30 -1 -31 -8 -4 -36 19 -21 46 -22 34 -1 -4 5 0 9 7 9 15 0
68 -56 68 -72 0 -5 5 -6 10 -3 16 10 40 -14 40 -39 0 -17 -2 -18 -11 -6 -8 12
-10 11 -7 -5 2 -11 9 -21 16 -21 6 -1 16 -2 22 -3 5 0 7 -7 4 -15 -3 -8 1 -16
10 -18 33 -7 -2 -27 -52 -30 -46 -3 -51 -5 -46 -22 5 -16 3 -18 -17 -13 -13 4
-31 7 -39 7 -13 1 -12 3 1 13 15 11 15 14 -6 23 -19 9 -22 8 -17 -8 3 -12 -1
-18 -14 -19 -17 0 -16 -1 2 -9 28 -11 40 -30 20 -30 -8 0 -18 5 -21 10 -10 17
-48 12 -41 -5 3 -10 -1 -15 -14 -15 -10 0 -21 -4 -24 -8 -3 -5 -25 -9 -49 -11
-41 -2 -47 1 -76 38 -34 42 -38 56 -18 65 6 3 3 4 -8 3 -14 -1 -22 7 -30 29
l-10 32 -30 -25 c-98 -81 -128 -102 -136 -98 -5 4 -6 -1 -3 -9 4 -10 1 -16 -8
-16 -7 0 -14 9 -15 20 -1 11 4 20 13 20 8 0 14 7 14 16 0 9 5 12 13 8 8 -5 8
-2 -2 9 -11 14 -11 20 -1 32 8 9 8 15 2 15 -6 0 -12 -5 -14 -11 -2 -7 -11 -7
-28 0 -14 5 -20 10 -13 10 7 1 10 7 7 15 -3 8 -1 17 5 21 6 3 8 17 5 31 -5 20
-3 23 12 18 15 -5 16 -4 8 5 -9 10 -17 10 -34 1 -12 -6 -24 -9 -27 -6 -3 3 2
8 11 12 13 5 14 9 5 21 -11 12 -8 13 13 8 23 -6 25 -4 20 20 -3 17 0 30 9 35
11 7 10 12 -3 27 -12 13 -16 34 -15 75 1 31 5 52 8 46 4 -5 9 -6 12 -2 3 5 -1
15 -9 22 -8 7 -14 8 -14 2 0 -13 -37 -13 -45 0 -3 6 4 10 17 10 21 1 22 2 6
14 -23 17 -23 26 2 26 12 0 20 7 20 18 0 14 -2 15 -10 2 -9 -13 -11 -13 -20 0
-13 20 -12 37 1 62 9 16 8 19 -2 13 -9 -6 -10 -3 -6 9 6 14 3 17 -8 12 -13 -5
-14 -2 -4 15 8 17 7 23 -7 33 -12 9 -14 15 -6 20 7 4 12 15 11 24 0 11 -3 12
-6 5 -2 -7 -10 -13 -17 -13 -7 0 -23 -11 -36 -25 -13 -14 -28 -25 -34 -24 -8
0 -7 2 0 5 6 3 9 16 6 29 -3 18 0 25 12 25 19 0 20 5 6 31 -6 10 -7 19 -3 19
5 0 9 21 10 48 1 26 -1 41 -4 35 -2 -7 -11 -13 -19 -13 -8 0 -14 -5 -14 -11 0
-6 -6 -9 -14 -6 -10 4 -12 0 -9 -14 3 -10 9 -19 14 -19 5 0 9 -9 9 -21 0 -11
-4 -18 -8 -15 -5 3 -7 -9 -5 -27 3 -28 0 -24 -24 24 -16 33 -42 65 -60 78
l-33 21 0 -25 c0 -18 -5 -25 -20 -25 -12 0 -20 7 -20 16 0 14 3 14 15 4 13
-10 15 -9 15 9 0 16 -6 20 -25 19 -22 -2 -25 -7 -25 -42 0 -37 -1 -39 -15 -20
-8 10 -15 26 -15 35 0 18 -27 45 -36 36 -3 -3 2 -19 12 -35 11 -20 14 -36 9
-48 -5 -11 -9 -37 -9 -59 -1 -40 -1 -40 -41 -41 -21 -1 -41 -6 -43 -13 -3 -9
-7 -9 -18 0 -12 10 -12 13 3 24 22 16 24 55 4 63 -9 3 -20 12 -24 19 -9 15
-22 6 -46 -32 -11 -18 -12 -16 -7 17 3 29 1 38 -12 41 -9 3 -4 5 12 6 28 1 29
2 10 16 -18 14 -18 14 6 15 22 0 20 2 -15 22 -22 12 -51 21 -64 20 -16 -1 -22
2 -18 12 3 8 0 22 -8 32 -9 13 -10 23 -3 31 8 10 3 13 -19 13 -26 0 -32 5 -43
39 -14 44 -33 56 -58 41 -15 -8 -15 -9 3 -10 20 -1 20 -1 1 -15 -11 -8 -14
-16 -8 -16 26 -3 31 -4 38 -11 4 -5 -14 -8 -39 -8 -26 0 -47 5 -47 10 0 6 6
10 13 10 6 0 3 6 -8 12 -27 15 -34 28 -27 46 3 10 1 13 -6 8 -7 -4 -12 -2 -12
3 0 6 5 11 12 11 6 0 9 3 6 6 -4 3 -23 1 -44 -5 -27 -7 -40 -7 -45 0 -5 8 -8
8 -13 0 -4 -6 -1 -11 6 -11 8 -1 6 -6 -6 -15 -19 -14 -18 -15 9 -15 27 0 28
-1 9 -15 -19 -14 -19 -14 1 -15 15 0 17 -2 6 -9 -11 -7 -11 -9 0 -14 11 -4 11
-8 -3 -22 -15 -16 -19 -16 -34 -4 -16 13 -17 12 -11 -5 5 -12 3 -22 -5 -27 -9
-6 -9 -11 0 -22 7 -8 12 -28 11 -43 -3 -36 9 -73 29 -96 10 -13 11 -18 3 -18
-18 0 -10 -61 11 -84 22 -24 22 -30 3 -46 -19 -16 -1 -42 22 -33 12 5 15 2 10
-10 -3 -8 -1 -17 6 -20 8 -2 6 -12 -7 -31 -10 -16 -13 -25 -7 -22 6 4 11 2 11
-3 0 -6 5 -11 11 -11 6 0 9 7 6 14 -4 10 -1 13 9 9 11 -4 12 -9 3 -19 -9 -11
-8 -18 1 -29 9 -10 9 -15 1 -15 -6 0 -11 5 -11 10 0 6 -4 10 -9 10 -16 0 -19
-61 -4 -76 8 -8 11 -18 8 -24 -3 -5 1 -10 11 -10 13 0 14 -3 4 -15 -7 -8 -10
-21 -7 -30 4 -8 -2 -19 -11 -25 -15 -10 -14 -11 6 -7 22 5 32 -8 12 -15 -6 -2
-2 -13 10 -26 l21 -22 -28 -1 c-16 -1 -21 -3 -11 -6 9 -2 21 -16 27 -31 6 -17
10 -21 10 -9 1 9 6 17 12 17 6 0 9 -7 5 -15 -3 -8 0 -15 6 -15 7 0 7 -4 0 -12
-5 -7 -13 -24 -17 -37 -5 -18 -4 -22 6 -16 9 6 11 3 6 -9 -4 -10 -1 -19 8 -23
12 -4 13 -9 4 -19 -12 -14 -8 -22 34 -68 11 -13 13 -22 6 -26 -6 -4 4 -10 21
-14 28 -5 31 -8 20 -21 -9 -11 -9 -15 -1 -15 7 0 9 -5 6 -11 -7 -11 16 -84 40
-130 8 -14 13 -35 11 -46 -4 -19 1 -20 134 -19 76 1 133 4 127 8 -8 5 -4 8 8
8 15 0 17 2 6 9 -11 7 -11 9 0 14 10 4 6 14 -17 34 -30 29 -35 57 -8 46 8 -3
14 1 14 10 0 8 -6 17 -12 20 -10 3 -9 8 2 22 14 17 13 17 -10 10 -23 -7 -23
-7 -7 10 17 16 17 18 -4 36 -17 15 -19 22 -10 33 7 9 8 17 2 20 -5 3 -12 0
-15 -6 -3 -7 -3 -1 0 15 4 16 2 27 -5 27 -6 0 -11 7 -11 16 0 9 -5 12 -12 8
-7 -5 -9 -2 -5 9 3 9 1 18 -6 21 -9 3 -8 7 2 14 9 7 10 12 2 16 -6 4 -9 12 -6
17 4 5 2 9 -4 9 -8 0 -26 70 -21 85 1 4 -6 17 -15 31 -9 14 -13 33 -10 44 4
12 -1 28 -14 42 -14 15 -17 24 -10 29 8 4 7 8 -2 11 -11 4 -8 12 10 32 25 26
52 38 34 14 -12 -16 -4 -98 9 -98 6 0 7 -7 4 -16 -3 -9 -3 -21 1 -27 4 -6 8
-25 10 -41 2 -16 10 -39 17 -51 8 -12 16 -32 18 -46 1 -13 6 -26 10 -29 3 -3
8 -20 11 -37 3 -18 14 -47 25 -65 11 -18 23 -50 26 -70 4 -20 12 -38 18 -40 6
-2 12 -17 14 -33 2 -16 8 -31 14 -33 5 -2 10 -10 10 -18 0 -8 11 -31 25 -52
16 -23 21 -38 14 -43 -24 -15 52 -19 361 -19 l326 0 -1 22 c-1 13 -7 33 -13
45 -7 12 -12 28 -12 37 0 8 -5 16 -10 18 -6 2 -11 23 -13 48 -1 25 -6 48 -12
53 -11 8 15 28 52 38 14 5 24 2 27 -7 7 -19 36 -18 36 2 0 14 2 15 17 3 19
-17 65 -20 59 -4 -2 7 7 10 26 7 l30 -5 -39 -17 c-37 -16 -37 -17 -16 -28 29
-16 38 -15 24 2 -10 12 -8 13 8 9 12 -3 21 -10 21 -16 0 -6 6 -2 14 8 8 11 11
26 8 35 -5 13 -4 13 12 1 9 -8 14 -21 11 -29 -4 -12 -3 -13 9 -3 8 7 20 10 26
6 5 -3 10 0 10 9 0 8 -6 17 -12 19 -8 3 -6 6 5 6 17 1 21 -8 18 -39 -1 -13 0
-13 11 1 7 9 19 14 26 12 21 -8 13 13 -10 26 l-23 12 23 -5 c12 -2 22 0 22 5
0 5 4 9 10 9 5 0 7 -6 4 -14 -3 -9 3 -17 16 -21 22 -7 24 -42 2 -38 -6 2 -15
-12 -20 -30 -10 -35 -6 -49 7 -28 6 8 11 9 15 3 3 -6 -4 -18 -16 -26 -15 -11
-17 -16 -8 -16 30 0 42 17 39 53 -4 42 2 51 28 43 12 -4 19 -17 20 -38 2 -27
0 -30 -8 -16 -5 10 -15 18 -20 18 -6 0 -8 -4 -4 -9 3 -5 0 -21 -7 -36 -13 -29
-1 -45 36 -45 20 0 20 0 0 15 -10 8 -14 15 -9 15 6 0 3 5 -5 10 -12 8 -9 10
13 10 28 0 66 -32 66 -55 0 -5 -6 -1 -14 9 -11 15 -15 16 -15 5 0 -8 5 -20 12
-27 15 -15 11 -18 -29 -25 -28 -6 -33 -4 -33 13 0 11 -5 20 -11 20 -5 0 -7 -4
-4 -10 3 -5 0 -10 -7 -10 -9 0 -9 -3 2 -10 8 -5 11 -10 7 -10 -5 0 -1 -7 7
-16 15 -14 17 -14 32 1 10 9 25 14 36 12 10 -3 16 -1 12 4 -3 5 0 9 5 9 6 0
11 -4 11 -10 0 -5 9 -10 20 -10 11 0 20 -4 20 -10 0 -6 117 -10 330 -10 l330
0 0 764 0 764 -182 92 c-101 50 -197 99 -214 108 -17 9 -67 33 -112 52 -45 19
-82 41 -82 48 0 7 3 11 8 9 4 -3 34 -17 67 -32 152 -69 285 -138 285 -148 0
-6 7 -2 15 9 11 15 14 16 15 4 0 -9 16 -23 35 -32 34 -15 35 -15 36 6 1 11 1
24 0 29 0 4 3 7 8 7 6 0 7 -15 4 -34 -4 -28 -1 -36 16 -45 12 -7 25 -9 30 -7
5 3 12 -1 15 -10 3 -8 10 -12 16 -9 5 3 10 1 10 -4 0 -6 7 -11 15 -11 13 0 15
46 15 354 0 396 7 362 -74 372 -22 3 -43 7 -47 9 -4 3 -24 7 -45 10 -22 3 -55
10 -74 15 -36 10 -196 44 -265 57 -22 4 -43 8 -47 9 -5 1 -15 2 -23 3 -22 2
-18 21 4 21 19 0 35 23 24 34 -4 3 -15 6 -25 6 -16 0 -23 17 -19 43 1 5 -3 6
-9 2 -5 -3 -10 -1 -10 4 0 6 -5 11 -12 11 -7 0 -6 -6 4 -17 21 -25 27 -67 12
-81 -8 -7 -15 -8 -19 -3 -3 6 -22 7 -42 4 -26 -4 -34 -3 -29 5 5 8 2 10 -8 6
-9 -3 -24 -3 -33 1 -10 4 -34 10 -53 12 -19 2 -39 8 -44 13 -5 5 0 7 13 3 16
-4 21 -1 21 15 0 12 -9 22 -22 26 -18 5 -20 8 -9 15 11 7 9 11 -8 20 -17 10
-22 9 -27 -4 -3 -8 -14 -15 -23 -16 -17 0 0 -10 43 -24 19 -6 19 -6 -1 -20
-15 -10 -29 -12 -54 -5 -19 4 -51 11 -71 15 -37 6 -54 25 -23 25 8 0 15 5 15
10 0 6 -7 10 -15 10 -8 0 -15 5 -15 11 0 5 -5 7 -11 3 -8 -4 -7 -9 2 -15 10
-6 11 -11 3 -19 -15 -15 -120 -3 -139 16 -7 8 -16 10 -19 6 -7 -11 -64 -3 -72
10 -4 5 3 8 14 6 12 -2 22 2 23 7 2 6 -6 11 -17 13 -43 7 -61 23 -56 50 3 15
2 24 -2 21 -3 -3 -7 -17 -8 -30 -2 -24 -4 -25 -58 -21 -30 2 -60 9 -67 14 -7
5 -17 7 -22 4 -12 -8 -101 13 -120 28 -12 9 -13 8 -6 -3 7 -12 0 -13 -36 -7
-24 4 -63 10 -86 13 -28 4 -40 10 -36 17 4 6 0 5 -9 -2 -13 -10 -30 -10 -86
-1 l-70 12 -7 66 c-7 75 -4 140 7 147 4 3 38 7 75 9 228 16 418 37 628 69 50
8 94 11 99 8 5 -3 6 0 2 6 -5 8 0 12 13 12 11 0 100 9 198 20 257 29 243 28
244 10 0 -13 1 -13 6 0 3 8 11 18 17 22 17 12 68 10 61 -2 -3 -5 -1 -10 4 -10
6 0 11 8 12 18 0 14 2 14 9 -3 6 -13 9 -15 9 -5 1 18 61 25 62 7 0 -7 4 -3 9
8 l9 20 1 -20 1 -20 9 20 9 20 1 -20 1 -20 9 20 c5 11 9 14 9 8 1 -20 21 -15
22 5 1 11 4 9 9 -8 l8 -25 1 25 c2 24 2 24 16 6 15 -19 15 -19 16 5 l1 24 7
-25 c7 -24 7 -24 15 -5 l8 20 8 -20 c8 -18 9 -18 10 5 1 23 2 23 10 5 9 -20 9
-20 15 2 6 18 11 20 31 13 17 -7 24 -6 24 3 1 6 7 -1 15 -18 l13 -30 1 28 c2
56 20 24 24 -40 l3 -68 2 68 c1 37 6 67 11 67 4 0 7 -12 5 -27 -3 -26 -3 -27
4 -4 12 38 32 38 33 -1 2 -32 2 -32 9 7 7 45 17 33 23 -30 3 -35 4 -33 5 13 2
58 12 66 29 25 10 -27 11 -26 12 16 l1 44 -82 -7 c-88 -7 -138 -13 -176 -22
-17 -3 -23 -1 -20 8 5 13 44 22 143 32 33 3 77 8 98 12 l37 7 0 82 0 82 -37 7
c-21 3 -74 6 -118 6 -45 0 -85 4 -90 9 -6 6 -32 11 -59 12 -38 2 -50 7 -56 23
-7 17 -9 18 -9 4 -1 -11 -9 -18 -22 -18 -11 0 -18 4 -15 9 3 5 0 11 -8 14 -18
7 -56 -3 -56 -15 0 -5 -4 -6 -10 -3 -5 3 -10 15 -10 26 0 14 -7 19 -27 19 -16
0 -23 4 -18 8 6 4 17 16 25 26 14 17 13 18 -6 12 -24 -7 -23 -8 -27 104 -2 62
1 78 16 92 18 16 18 17 -2 37 -13 13 -27 18 -38 14 -24 -9 -43 -29 -36 -37 4
-3 -3 -6 -15 -6 -24 0 -30 15 -9 23 6 3 2 6 -11 6 -17 1 -26 -7 -34 -31 -11
-31 -11 -31 -20 -9 -5 14 -4 28 2 36 5 6 7 15 3 18 -9 10 -35 -31 -28 -43 3
-6 1 -10 -5 -10 -6 0 -8 -5 -4 -11 4 -7 1 -10 -7 -7 -9 3 -13 16 -11 34 2 20
0 25 -6 16 -7 -11 -11 -10 -17 5 -18 41 -12 56 13 31 7 -7 12 -8 12 -4 0 5 -9
17 -20 26 -12 10 -19 23 -18 30 2 7 -3 15 -9 17 -7 3 -13 0 -13 -6 0 -6 -7
-11 -15 -11 -20 0 -19 7 6 33 l20 22 -32 7 c-18 3 -39 4 -47 0 -12 -4 -14 2
-9 36 5 44 -5 55 -22 25 -9 -15 -10 -14 -11 10 0 31 -27 38 -37 10z m-83 -114
c0 -5 -4 -9 -10 -9 -5 0 -10 7 -10 16 0 8 5 12 10 9 6 -3 10 -10 10 -16z m-37
-19 c-3 -11 -9 -17 -14 -15 -10 7 -1 35 11 35 5 0 6 -9 3 -20z m252 -107 c-3
-16 -11 -32 -17 -38 -8 -7 -9 -4 -4 8 3 10 6 27 6 38 0 10 5 19 11 19 7 0 9
-10 4 -27z m275 7 c0 -5 -4 -10 -9 -10 -6 0 -13 5 -16 10 -3 6 1 10 9 10 9 0
16 -4 16 -10z m-943 -20 c-1 -11 -5 -20 -9 -20 -4 0 -8 9 -8 20 0 11 4 20 9
20 6 0 9 -9 8 -20z m153 -17 c0 -22 -2 -25 -10 -13 -13 20 -13 40 0 40 6 0 10
-12 10 -27z m459 4 c-11 -10 -23 -17 -26 -14 -7 8 19 34 34 34 8 0 5 -8 -8
-20z m-799 -46 c0 -9 -7 -6 -20 9 -11 13 -20 27 -20 31 0 5 9 1 20 -8 11 -10
20 -24 20 -32z m720 29 c0 -5 -5 -10 -11 -10 -5 0 -7 5 -4 10 3 6 8 10 11 10
2 0 4 -4 4 -10z m-2140 -50 c0 -5 -4 -10 -10 -10 -5 0 -10 5 -10 10 0 6 5 10
10 10 6 0 10 -4 10 -10z m1682 -25 c-2 -14 -8 -25 -13 -25 -10 0 -12 43 -3 53
13 12 21 -3 16 -28z m615 -11 c-25 -29 -27 -29 -27 -4 0 11 7 20 15 20 8 0 14
3 14 8 -3 19 2 26 10 13 6 -9 2 -22 -12 -37z m213 -5 c-7 -11 -14 -18 -17 -15
-3 3 0 12 7 21 18 21 23 19 10 -6z m-1135 -109 c3 -5 1 -10 -4 -10 -6 0 -11 5
-11 10 0 6 2 10 4 10 3 0 8 -4 11 -10z m-135 -34 c0 -3 -4 -8 -10 -11 -5 -3
-10 -1 -10 4 0 6 5 11 10 11 6 0 10 -2 10 -4z m1324 -11 c-4 -8 -10 -12 -15
-9 -11 6 -2 24 11 24 5 0 7 -7 4 -15z m-3534 -160 c0 -8 -2 -15 -4 -15 -2 0
-6 7 -10 15 -3 8 -1 15 4 15 6 0 10 -7 10 -15z m10 -35 c13 -8 13 -10 -2 -10
-9 0 -20 5 -23 10 -8 13 5 13 25 0z m47 -166 c33 -7 74 -20 90 -28 27 -16 25
-16 -65 -14 l-92 3 -1 -30 c-3 -114 -6 -155 -13 -162 -4 -4 -7 17 -6 47 1 30
-2 65 -5 78 -4 13 -3 22 3 22 13 0 3 42 -12 52 -6 4 -21 8 -33 8 -13 0 -23 4
-23 9 0 5 -19 7 -42 4 -32 -3 -39 -2 -28 6 12 8 13 12 2 23 -11 11 -16 10 -26
-4 -16 -22 -26 -23 -26 -3 0 8 -4 15 -10 15 -5 0 -10 -9 -10 -20 0 -35 -29
-36 -63 -2 -17 17 -28 34 -25 38 15 14 153 4 203 -16 17 -6 45 -13 63 -16 l32
-4 0 54 c0 86 14 101 20 22 l5 -69 62 -13z m1663 86 c0 -35 3 -39 30 -45 16
-4 33 -11 37 -17 4 -8 0 -9 -11 -5 -16 6 -17 1 -11 -46 4 -28 11 -53 16 -55 5
-2 9 -10 9 -18 0 -8 7 -14 15 -14 8 0 15 -4 15 -10 0 -5 51 -11 118 -13 64 -1
-22 -4 -192 -5 -170 -1 -307 -4 -304 -7 3 -3 157 -6 343 -6 l337 0 -4 -100
c-2 -75 -7 -102 -18 -109 -8 -5 -56 -10 -107 -10 l-92 0 -40 43 c-22 23 -48
52 -58 65 -23 28 -95 39 -138 21 -16 -7 -36 -11 -42 -10 -7 1 -13 -3 -13 -10
0 -8 -4 -8 -13 -1 -6 6 -35 19 -62 30 -51 20 -58 19 -122 -11 -12 -5 -20 -13
-18 -17 3 -4 -11 -18 -30 -31 -19 -13 -40 -34 -47 -47 l-12 -23 -278 3 c-181
2 -278 -1 -278 -7 0 -5 -4 -5 -8 2 -4 7 -37 12 -85 12 -47 0 -75 -3 -72 -9 3
-6 1 -10 -4 -10 -6 0 -11 4 -11 10 0 5 -60 11 -147 12 l-148 3 -2 40 c-1 22 1
67 4 100 l5 60 477 -1 c262 -1 481 -3 486 -4 6 -1 13 -2 18 -1 4 1 25 2 47 3
25 1 37 5 33 12 -4 6 0 5 9 -2 10 -8 31 -12 50 -9 l33 4 -36 1 c-25 2 -36 7
-36 18 0 15 12 15 64 -2 14 -5 15 -4 3 5 -27 19 -1 24 43 7 23 -9 54 -16 67
-15 l25 0 -23 11 c-23 11 -23 11 9 25 17 7 42 13 54 13 18 0 24 7 27 31 3 20
0 33 -9 36 -25 10 -14 33 16 33 34 0 47 15 42 47 -1 13 1 28 6 35 4 7 8 16 9
21 1 4 2 10 3 13 0 3 6 2 11 -1 6 -3 10 -24 10 -45z m2050 1 c0 -16 -10 -18
-175 -41 -88 -11 -205 -27 -260 -35 -91 -13 -116 -13 -103 0 2 3 38 10 79 16
70 10 435 65 452 68 4 0 7 -3 7 -8z m-4175 -11 c-3 -5 -11 -10 -16 -10 -6 0
-7 5 -4 10 3 6 11 10 16 10 6 0 7 -4 4 -10z m210 -10 c3 -6 -5 -10 -19 -10
-14 0 -28 5 -31 10 -3 6 5 10 19 10 14 0 28 -4 31 -10z m-229 -77 c-11 -11
-19 6 -11 24 8 17 8 17 12 0 3 -10 2 -21 -1 -24z m-56 18 c0 -5 -6 -14 -14
-20 -12 -10 -13 -8 -9 8 5 21 23 30 23 12z m3694 -12 c-3 -5 -11 -9 -17 -7
-15 2 -86 -8 -266 -37 -145 -24 -199 -27 -99 -5 96 21 373 67 381 63 4 -3 5
-9 1 -14z m-1344 -20 c0 -4 -9 -7 -20 -6 -11 1 -20 7 -20 13 0 7 8 10 20 7 11
-3 20 -9 20 -14z m-39 -17 c8 3 23 1 34 -3 15 -6 10 -8 -19 -6 -25 1 -41 7
-43 17 -4 12 -3 13 5 1 6 -8 16 -12 23 -9z m117 -7 c2 -2 -7 -2 -21 -1 -13 0
-24 6 -24 13 0 9 6 9 21 1 12 -6 22 -12 24 -13z m162 14 c12 -9 12 -10 -4 -5
-13 5 -17 2 -12 -9 6 -16 -3 -19 -28 -9 -9 3 -16 12 -16 20 0 17 38 18 60 3z
m-72 -11 c-3 -7 -11 -13 -18 -13 -7 0 -15 6 -17 13 -3 7 4 12 17 12 13 0 20
-5 18 -12z m-2123 -18 c3 -5 -1 -10 -9 -10 -9 0 -16 5 -16 10 0 6 4 10 9 10 6
0 13 -4 16 -10z m2851 -9 c-5 -8 -70 -19 -156 -27 -62 -5 -40 3 55 20 99 18
108 18 101 7z m-3021 -11 c3 -6 -1 -7 -9 -4 -18 7 -21 14 -7 14 6 0 13 -4 16
-10z m408 -17 c-7 -3 -13 -11 -13 -19 0 -8 -4 -14 -10 -14 -15 0 -12 47 3 53
6 2 17 0 22 -5 7 -7 6 -12 -2 -15z m-463 7 c0 -5 -5 -10 -11 -10 -5 0 -7 -4
-4 -10 3 -5 1 -10 -4 -10 -12 0 -15 23 -4 33 10 10 23 8 23 -3z m420 -11 c0
-9 -27 -19 -51 -19 -11 0 -16 5 -13 13 5 13 64 18 64 6z m1290 1 c0 -5 -2 -10
-4 -10 -3 0 -8 5 -11 10 -3 6 -1 10 4 10 6 0 11 -4 11 -10z m535 -10 c3 -6 -1
-7 -9 -4 -18 7 -21 14 -7 14 6 0 13 -4 16 -10z m498 -7 c-18 -2 -48 -2 -65 0
-18 2 -4 4 32 4 36 0 50 -2 33 -4z m-2738 -13 c-3 -5 -14 -10 -23 -9 -14 0
-13 2 3 9 27 11 27 11 20 0z m2608 3 c-7 -2 -19 -2 -25 0 -7 3 -2 5 12 5 14 0
19 -2 13 -5z m-996 -9 c-3 -3 -12 -4 -19 -1 -8 3 -5 6 6 6 11 1 17 -2 13 -5z
m-1040 -56 c-3 -8 -6 -5 -6 6 -1 11 2 17 5 13 3 -3 4 -12 1 -19z m-94 -15 c-7
-2 -19 -2 -25 0 -7 3 -2 5 12 5 14 0 19 -2 13 -5z m-340 -20 c-7 -2 -19 -2
-25 0 -7 3 -2 5 12 5 14 0 19 -2 13 -5z m-436 -35 c-3 -7 -5 -2 -5 12 0 14 2
19 5 13 2 -7 2 -19 0 -25z m643 18 c0 -2 -6 -9 -13 -15 -10 -8 -14 -7 -14 4 0
8 6 15 14 15 7 0 13 -2 13 -4z m-47 -49 l-2 -37 62 -1 c34 0 77 -2 95 -5 29
-3 32 -1 32 21 0 34 26 22 34 -16 3 -17 10 -28 16 -24 5 3 10 2 10 -4 0 -5 -9
-13 -20 -16 -15 -5 -19 -12 -14 -31 5 -18 2 -24 -10 -24 -9 0 -16 -4 -16 -10
0 -5 -9 -10 -20 -10 -11 0 -20 -4 -20 -10 0 -5 14 -10 30 -10 17 0 30 -3 30
-7 0 -5 -52 -10 -116 -11 -92 -3 -115 -1 -108 9 5 9 2 11 -9 6 -22 -8 -23 6
-12 146 6 66 9 78 23 75 13 -3 16 -13 15 -41z m-460 13 c-3 -12 -8 -19 -11
-16 -5 6 5 36 12 36 2 0 2 -9 -1 -20z m57 0 c0 -5 -5 -10 -11 -10 -5 0 -7 5
-4 10 3 6 8 10 11 10 2 0 4 -4 4 -10z m538 -28 c2 -7 -3 -12 -12 -12 -9 0 -16
7 -16 16 0 17 22 14 28 -4z m512 -90 c0 -4 -5 -13 -12 -20 -9 -9 -7 -12 10
-12 18 0 22 -6 22 -32 -1 -31 -1 -32 -15 -14 -13 17 -15 18 -15 3 0 -9 -5 -17
-10 -17 -6 0 -8 -11 -4 -25 4 -16 2 -25 -6 -25 -6 0 -8 5 -5 10 3 6 2 10 -4
10 -6 0 -8 7 -4 15 3 10 0 15 -8 13 -8 -2 -15 7 -17 20 -3 19 -6 21 -18 11
-20 -17 -19 17 2 38 13 13 13 17 2 24 -8 6 5 9 35 9 26 0 47 -4 47 -8z m62
-54 l2 -63 3 63 c2 34 6 62 9 62 14 0 33 -30 36 -56 3 -26 7 -29 45 -32 l41
-3 -4 40 -4 41 68 -1 c37 0 62 -3 55 -5 -7 -3 -10 -17 -8 -35 15 -91 15 -94 5
-79 -5 8 -10 30 -10 48 0 18 -6 40 -14 48 -15 15 -66 20 -66 6 0 -15 24 -32
47 -32 18 0 23 -6 23 -26 0 -14 -7 -32 -15 -40 -8 -9 -15 -12 -15 -7 0 4 -19
8 -43 8 -36 0 -42 -3 -43 -22 -2 -17 4 -23 30 -26 17 -2 1 -5 -36 -5 -40 -1
-68 2 -68 8 0 6 8 11 18 11 16 1 16 2 0 6 -14 4 -18 16 -20 61 -1 37 -2 44 -5
22 -7 -65 -13 -86 -24 -69 -7 12 -9 12 -10 -1 -2 -39 -18 31 -18 83 -1 78 19
73 21 -5z m307 -7 c-1 -50 -2 -52 -9 -21 l-7 35 -2 -42 c0 -24 -5 -43 -11 -43
-12 0 -12 1 -15 60 -2 53 9 82 30 74 11 -5 15 -21 14 -63z m143 45 c5 -8 8 -7
8 2 0 19 17 14 23 -8 3 -10 2 -18 -2 -17 -3 1 -8 -2 -11 -7 -3 -5 3 -10 13
-12 14 -2 18 4 17 24 -3 40 -1 45 13 34 6 -5 23 -8 37 -6 14 1 20 0 13 -2 -7
-3 -9 -12 -7 -19 3 -8 2 -20 -2 -27 -10 -16 -11 -19 -13 -59 0 -16 -5 -28 -10
-24 -5 3 -11 -7 -13 -22 -3 -27 -5 -28 -48 -22 l-45 6 43 1 c23 1 42 7 42 13
0 5 -4 7 -10 4 -6 -3 -10 4 -11 17 0 13 -3 17 -6 11 -2 -8 -22 -13 -44 -13
-29 0 -38 4 -34 13 4 6 -3 1 -15 -13 l-22 -24 4 77 c2 47 -1 77 -7 77 -5 0 -3
4 5 9 17 11 72 2 82 -13z m1218 1 c13 -5 13 -6 -1 -6 -8 -1 -24 6 -35 15 -19
15 -19 15 1 6 11 -5 27 -12 35 -15z m83 -14 c-7 -2 -19 -2 -25 0 -7 3 -2 5 12
5 14 0 19 -2 13 -5z m-2543 -13 c0 -5 -5 -10 -11 -10 -5 0 -7 5 -4 10 3 6 8
10 11 10 2 0 4 -4 4 -10z m2650 0 l25 -8 -25 -1 c-14 0 -32 4 -40 9 -13 9 -13
10 0 9 8 -1 26 -5 40 -9z m-1513 -52 c-2 -13 -4 -5 -4 17 -1 22 1 32 4 23 2
-10 2 -28 0 -40z m1611 27 c-7 -7 -67 8 -63 16 3 4 19 3 36 -3 16 -6 29 -12
27 -13z m-2238 11 c0 -11 -19 -15 -25 -6 -3 5 1 10 9 10 9 0 16 -2 16 -4z m70
-15 c0 -4 -9 -14 -20 -24 -11 -9 -20 -12 -20 -7 0 6 -12 11 -27 11 -25 2 -26
2 -5 6 13 3 21 10 19 17 -3 8 4 11 24 8 16 -2 29 -7 29 -11z m17 -13 c-3 -7
-5 -2 -5 12 0 14 2 19 5 13 2 -7 2 -19 0 -25z m520 -30 c-2 -13 -4 -3 -4 22 0
25 2 35 4 23 2 -13 2 -33 0 -45z m1735 33 c4 -3 -10 -5 -32 -3 -22 2 -43 9
-47 14 -7 12 67 2 79 -11z m-2455 -10 c-3 -15 0 -17 17 -13 11 3 18 1 14 -3
-4 -5 -3 -14 3 -22 9 -10 4 -13 -27 -13 -29 0 -35 3 -24 10 12 8 12 10 -5 10
-15 0 -17 3 -7 9 8 4 13 11 13 15 -3 19 0 26 10 26 6 0 9 -8 6 -19z m2123 9
c0 -5 -4 -10 -10 -10 -5 0 -10 5 -10 10 0 6 5 10 10 10 6 0 10 -4 10 -10z
m-2770 -10 c0 -5 -4 -10 -10 -10 -5 0 -10 5 -10 10 0 6 5 10 10 10 6 0 10 -4
10 -10z m780 -20 c0 -5 6 -10 14 -10 8 0 16 -7 20 -15 4 -12 -3 -15 -30 -15
-29 0 -35 3 -30 16 3 9 6 20 6 25 0 5 5 9 10 9 6 0 10 -4 10 -10z m2088 -65
c1 12 5 16 12 9 11 -11 2 -54 -11 -54 -4 0 -8 -25 -8 -55 1 -34 5 -55 13 -55
6 0 32 -11 57 -23 69 -35 77 -37 83 -21 3 8 2 13 -2 10 -4 -2 -6 11 -4 31 3
25 1 34 -7 29 -6 -4 -11 -2 -11 4 0 6 -4 8 -10 5 -5 -3 -10 -2 -10 3 0 15 28
22 34 9 2 -7 4 13 5 43 0 42 -3 50 -10 35 -8 -17 -9 -17 -4 5 2 14 5 34 5 45
1 15 4 13 13 -10 7 -16 12 -65 11 -107 0 -58 3 -79 13 -83 12 -4 11 -8 -2 -22
-16 -16 -16 -17 1 -30 10 -7 23 -13 28 -13 6 0 2 7 -8 15 -19 15 -19 15 1 15
12 0 28 -7 36 -15 8 -8 18 -11 22 -7 5 4 5 -1 2 -10 -7 -19 25 -44 42 -34 5 3
14 -1 21 -9 14 -17 35 -21 25 -5 -3 6 -2 10 3 10 5 0 10 -11 10 -25 0 -13 -3
-23 -7 -21 -3 2 -86 42 -183 90 l-178 87 2 117 c1 89 3 105 8 67 4 -27 8 -41
8 -30z m229 38 c-3 -10 -5 -4 -5 12 0 17 2 24 5 18 2 -7 2 -21 0 -30z m-680 5
c-3 -8 -6 -5 -6 6 -1 11 2 17 5 13 3 -3 4 -12 1 -19z m-1030 -20 c-3 -8 -6 -5
-6 6 -1 11 2 17 5 13 3 -3 4 -12 1 -19z m1570 -15 c-3 -10 -5 -4 -5 12 0 17 2
24 5 18 2 -7 2 -21 0 -30z m-1990 11 c-3 -3 -12 -4 -19 -1 -8 3 -5 6 6 6 11 1
17 -2 13 -5z m363 -14 c0 -5 -5 -10 -11 -10 -5 0 -7 5 -4 10 3 6 8 10 11 10 2
0 4 -4 4 -10z m1312 -31 c5 -3 2 -9 -8 -13 -10 -4 -15 -4 -11 0 4 4 2 13 -4
20 -6 7 -7 19 -3 26 6 10 10 8 12 -7 3 -11 9 -23 14 -26z m65 19 c-3 -8 -6 -5
-6 6 -1 11 2 17 5 13 3 -3 4 -12 1 -19z m-1419 5 c-10 -2 -26 -2 -35 0 -10 3
-2 5 17 5 19 0 27 -2 18 -5z m135 0 c-13 -2 -33 -2 -45 0 -13 2 -3 4 22 4 25
0 35 -2 23 -4z m1406 -26 c0 -21 -1 -21 -9 -2 -12 28 -12 37 0 30 6 -3 10 -16
9 -28z m265 -49 c-1 -40 0 -61 3 -45 6 40 20 33 15 -8 -3 -21 -8 -32 -15 -28
-6 4 -8 0 -4 -10 3 -10 2 -17 -3 -17 -17 0 -12 180 4 180 1 0 0 -33 0 -72z
m-2577 56 c-3 -3 -12 -4 -19 -1 -8 3 -5 6 6 6 11 1 17 -2 13 -5z m2393 -38 c0
-31 -5 -46 -16 -50 -13 -5 -14 -2 -8 11 4 10 7 33 6 51 -1 17 3 32 8 32 6 0
10 -20 10 -44z m-2860 24 c0 -5 -11 -10 -25 -10 -14 0 -25 5 -25 10 0 6 11 10
25 10 14 0 25 -4 25 -10z m47 -6 c-3 -3 -12 -4 -19 -1 -8 3 -5 6 6 6 11 1 17
-2 13 -5z m121 -1 c-10 -2 -26 -2 -35 0 -10 3 -2 5 17 5 19 0 27 -2 18 -5z
m3179 -15 c-3 -8 -6 -5 -6 6 -1 11 2 17 5 13 3 -3 4 -12 1 -19z m-3097 2 c11
-8 7 -9 -15 -4 -37 8 -45 14 -19 14 10 0 26 -5 34 -10z m2890 -94 c0 -85 -3
-105 -16 -110 -24 -9 -36 -7 -29 4 4 6 11 8 16 5 5 -4 9 1 9 10 0 9 -3 14 -7
12 -5 -3 -9 27 -9 66 -1 62 0 66 6 27 7 -43 7 -42 8 23 3 111 22 79 22 -37z
m-2630 63 c57 -11 108 -25 112 -32 5 -8 8 -5 9 8 0 11 3 14 6 8 3 -8 24 -13
56 -13 37 0 56 -5 71 -19 18 -17 27 -19 61 -11 22 6 67 7 100 5 42 -4 54 -2
40 4 -14 7 -16 10 -4 10 8 1 19 -3 25 -8 15 -16 126 -32 139 -21 6 5 14 7 17
4 3 -3 25 -7 48 -9 24 -2 46 -9 49 -14 4 -6 33 -13 65 -17 44 -5 57 -4 52 4
-4 7 -3 12 3 12 5 0 13 -4 16 -10 3 -5 12 -10 18 -10 7 0 6 4 -3 11 -12 8 -9
9 11 5 14 -3 29 -3 32 1 14 14 58 11 64 -3 5 -13 7 -13 14 -2 7 10 9 9 9 -4 0
-22 -20 -34 -30 -17 -7 10 -11 10 -24 -1 -9 -7 -20 -10 -23 -6 -4 4 -1 11 7
16 12 8 12 10 2 10 -8 0 -16 -9 -19 -19 -4 -14 -13 -19 -38 -18 -19 1 -32 4
-30 7 2 3 -14 4 -36 2 -21 -2 -39 -9 -39 -14 0 -6 11 -7 25 -4 14 4 25 2 25
-4 0 -14 -53 -12 -69 3 -11 10 -13 10 -7 0 4 -8 1 -13 -8 -13 -19 0 -30 17
-14 23 7 2 2 5 -12 5 -14 1 -32 2 -40 3 -8 0 -29 -2 -46 -6 -20 -5 -36 -2 -45
7 -11 10 -47 12 -154 10 -260 -6 -292 -5 -300 8 -4 6 -16 8 -28 5 -17 -5 -19
-4 -7 4 8 6 23 8 33 5 9 -3 17 -1 17 5 0 6 -11 11 -23 11 -13 0 -27 3 -30 7
-4 3 -36 5 -71 4 -41 -1 -67 2 -71 9 -6 9 4 10 36 5 56 -9 46 3 -12 14 l-44 9
49 1 c27 1 46 4 42 8 -3 4 -23 6 -44 5 -20 -1 -52 2 -69 7 -26 8 -33 7 -33 -5
0 -8 -7 -14 -16 -14 -8 0 -12 5 -9 10 3 6 -1 10 -9 10 -9 0 -16 6 -16 14 0 8
-8 17 -17 19 -40 11 89 -6 187 -24z m2507 -66 c-2 -21 -4 -6 -4 32 0 39 2 55
4 38 2 -18 2 -50 0 -70z m-3590 81 c-3 -3 -12 -4 -19 -1 -8 3 -5 6 6 6 11 1
17 -2 13 -5z m3202 -14 c18 -5 38 -13 44 -19 11 -11 -25 -1 -93 26 -33 13 -27
12 49 -7z m368 -2 c-3 -8 -6 -5 -6 6 -1 11 2 17 5 13 3 -3 4 -12 1 -19z
m-3314 5 c-7 -2 -21 -2 -30 0 -10 3 -4 5 12 5 17 0 24 -2 18 -5z m283 -4 c4
-7 -5 -10 -27 -8 -62 4 -82 0 -76 -15 5 -12 -2 -13 -31 -9 -49 8 -53 13 -11
13 l34 1 -30 14 c-28 13 -26 13 52 14 49 1 85 -3 89 -10z m120 -3 c20 -15 20
-15 -69 -7 -5 1 -5 6 -2 11 9 15 48 12 71 -4z m1007 -13 c-7 -2 -21 -2 -30 0
-10 3 -4 5 12 5 17 0 24 -2 18 -5z m-776 -9 c-3 -3 -12 -4 -19 -1 -8 3 -5 6 6
6 11 1 17 -2 13 -5z m116 -1 c-7 -2 -19 -2 -25 0 -7 3 -2 5 12 5 14 0 19 -2
13 -5z m805 0 c-10 -2 -28 -2 -40 0 -13 2 -5 4 17 4 22 1 32 -1 23 -4z m1759
-40 c-3 -10 -5 -2 -5 17 0 19 2 27 5 18 2 -10 2 -26 0 -35z m213 7 c0 -20 -5
-30 -15 -30 -8 0 -15 5 -15 11 0 5 5 7 10 4 6 -4 10 5 10 19 0 14 2 26 5 26 3
0 5 -13 5 -30z m27 -17 c-3 -10 -5 -2 -5 17 0 19 2 27 5 18 2 -10 2 -26 0 -35z
m60 25 c-3 -8 -6 -5 -6 6 -1 11 2 17 5 13 3 -3 4 -12 1 -19z m540 -25 c-3 -10
-5 -2 -5 17 0 19 2 27 5 18 2 -10 2 -26 0 -35z m-3420 31 c-3 -3 -12 -4 -19
-1 -8 3 -5 6 6 6 11 1 17 -2 13 -5z m1070 0 c-3 -3 -12 -4 -19 -1 -8 3 -5 6 6
6 11 1 17 -2 13 -5z m1423 -19 c0 -19 -4 -23 -17 -18 -10 4 -12 8 -6 10 7 3 9
11 6 19 -3 8 0 14 6 14 6 0 11 -11 11 -25z m757 -132 c-2 -32 -3 -8 -3 52 0
61 1 87 3 58 2 -29 2 -78 0 -110z m-3350 141 c-3 -3 -12 -4 -19 -1 -8 3 -5 6
6 6 11 1 17 -2 13 -5z m1033 2 c0 -2 -9 -6 -20 -9 -11 -3 -18 -1 -14 4 5 9 34
13 34 5z m2077 -28 c-3 -7 -5 -2 -5 12 0 14 2 19 5 13 2 -7 2 -19 0 -25z m20
0 c-3 -7 -5 -2 -5 12 0 14 2 19 5 13 2 -7 2 -19 0 -25z m-3059 15 c-10 -2 -26
-2 -35 0 -10 3 -2 5 17 5 19 0 27 -2 18 -5z m3579 -250 c-1 -49 -3 -9 -3 87 0
96 2 136 3 88 2 -49 2 -127 0 -175z m-3487 237 c11 -7 5 -8 -20 -4 -43 8 -51
14 -19 14 13 0 31 -5 39 -10z m811 1 c-8 -5 -20 -7 -28 -4 -21 8 -15 13 15 13
20 0 23 -3 13 -9z m-1798 -8 c-7 -2 -21 -2 -30 0 -10 3 -4 5 12 5 17 0 24 -2
18 -5z m75 0 c-10 -2 -28 -2 -40 0 -13 2 -5 4 17 4 22 1 32 -1 23 -4z m102 3
c0 -3 -4 -8 -10 -11 -5 -3 -10 -1 -10 4 0 6 5 11 10 11 6 0 10 -2 10 -4z m290
-6 c0 -5 -24 -10 -52 -10 -38 0 -49 3 -38 10 20 13 90 13 90 0z m630 0 c0 -13
-11 -13 -30 0 -12 8 -11 10 8 10 12 0 22 -4 22 -10z m2878 -225 l-12 -40 -7
45 c-5 39 -6 40 -7 12 -1 -19 -6 -31 -12 -27 -5 3 -10 -1 -10 -10 0 -9 12 -18
29 -21 17 -4 31 -14 34 -25 7 -25 -2 -24 -51 4 -35 19 -38 25 -29 45 6 12 13
22 16 22 3 0 5 46 5 102 -1 100 -1 101 5 28 l7 -75 4 75 3 75 7 -65 c6 -58 7
-60 8 -19 1 26 5 62 10 80 5 25 8 7 10 -66 2 -62 -2 -115 -10 -140z m249 168
c-2 -16 -4 -5 -4 22 0 28 2 40 4 28 2 -13 2 -35 0 -50z m140 -66 c-2 -23 -3
-1 -3 48 0 50 1 68 3 42 2 -26 2 -67 0 -90z m-4019 116 c-10 -2 -28 -2 -40 0
-13 2 -5 4 17 4 22 1 32 -1 23 -4z m1495 0 c-7 -2 -19 -2 -25 0 -7 3 -2 5 12
5 14 0 19 -2 13 -5z m2030 -74 c-4 -4 -6 13 -3 39 l5 47 3 -39 c2 -21 0 -42
-5 -47z m134 -31 c-2 -24 -4 -7 -4 37 0 44 2 63 4 43 2 -21 2 -57 0 -80z m303
-53 c0 -91 -3 -165 -7 -165 -5 0 -7 74 -5 165 2 91 5 165 7 165 3 0 5 -74 5
-165z m407 133 c-3 -7 -5 -2 -5 12 0 14 2 19 5 13 2 -7 2 -19 0 -25z m30 0
c-3 -7 -5 -2 -5 12 0 14 2 19 5 13 2 -7 2 -19 0 -25z m-4189 15 c-10 -2 -28
-2 -40 0 -13 2 -5 4 17 4 22 1 32 -1 23 -4z m3789 -105 c-2 -24 -4 -7 -4 37 0
44 2 63 4 43 2 -21 2 -57 0 -80z m180 -265 c-1 -71 -3 -13 -3 127 0 140 2 198
3 128 2 -71 2 -185 0 -255z m-4317 363 c0 -2 -7 -7 -16 -10 -8 -3 -12 -2 -9 4
6 10 25 14 25 6z m463 -3 c-13 -2 -33 -2 -45 0 -13 2 -3 4 22 4 25 0 35 -2 23
-4z m1367 -40 c-11 -17 -11 -17 -6 0 3 10 7 26 7 35 1 15 2 15 6 0 2 -10 -1
-25 -7 -35z m1520 37 c0 -5 -7 -7 -15 -4 -8 4 -15 8 -15 10 0 2 7 4 15 4 8 0
15 -4 15 -10z m177 -22 c-3 -7 -5 -2 -5 12 0 14 2 19 5 13 2 -7 2 -19 0 -25z
m606 -300 c1 -32 -1 -58 -5 -58 -3 0 -9 -8 -11 -17 -3 -10 -5 0 -6 22 0 23 4
46 11 53 8 8 9 12 1 12 -8 0 -11 50 -11 163 l1 162 9 -140 c5 -77 10 -166 11
-197z m64 285 c-3 -10 -5 -2 -5 17 0 19 2 27 5 18 2 -10 2 -26 0 -35z m403
-228 c0 -160 -4 -275 -9 -275 -5 0 -8 45 -7 103 2 56 4 180 5 275 0 94 3 172
6 172 3 0 5 -124 5 -275z m-1098 236 c2 -17 1 -28 -3 -25 -4 2 -6 -13 -6 -33
2 -27 7 -39 19 -41 9 -2 18 3 21 10 2 7 3 5 1 -5 -3 -24 32 -42 52 -26 12 10
13 9 8 -4 -3 -9 2 -19 14 -26 18 -10 19 -6 20 75 0 51 5 91 12 98 8 8 9 -6 4
-56 -5 -51 -3 -72 7 -85 9 -11 10 -14 2 -9 -9 5 -13 -1 -13 -21 0 -22 2 -25
10 -13 8 13 10 13 10 -2 0 -9 6 -18 13 -21 6 -2 10 -7 7 -10 -3 -3 -49 16
-102 41 -92 44 -98 48 -98 77 0 31 11 105 15 105 2 0 5 -13 7 -29z m405 -38
c-2 -16 -4 -5 -4 22 0 28 2 40 4 28 2 -13 2 -35 0 -50z m340 45 c-3 -8 -6 -5
-6 6 -1 11 2 17 5 13 3 -3 4 -12 1 -19z m150 -295 c-1 -60 -3 -11 -3 107 0
118 2 167 3 108 2 -60 2 -156 0 -215z m80 280 c-3 -10 -5 -4 -5 12 0 17 2 24
5 18 2 -7 2 -21 0 -30z m-3207 17 c0 -5 11 -10 24 -10 13 0 29 -7 36 -15 11
-13 10 -14 -2 -10 -11 4 -20 -3 -29 -24 -12 -26 -15 -28 -21 -13 -12 30 -9 42
10 35 12 -4 14 -3 6 6 -8 9 -20 8 -49 -4 -35 -15 -37 -15 -31 0 3 9 6 23 6 31
0 8 10 14 25 14 14 0 25 -4 25 -10z m73 3 c-13 -2 -33 -2 -45 0 -13 2 -3 4 22
4 25 0 35 -2 23 -4z m2257 -21 c0 -15 -2 -15 -10 -2 -13 20 -13 33 0 25 6 -3
10 -14 10 -23z m17 -4 c-3 -7 -5 -2 -5 12 0 14 2 19 5 13 2 -7 2 -19 0 -25z
m270 -30 c-2 -13 -4 -3 -4 22 0 25 2 35 4 23 2 -13 2 -33 0 -45z m740 40 c-3
-8 -6 -5 -6 6 -1 11 2 17 5 13 3 -3 4 -12 1 -19z m-3522 2 c3 -5 1 -10 -4 -10
-6 0 -11 5 -11 10 0 6 2 10 4 10 3 0 8 -4 11 -10z m95 -4 c0 -9 -9 -14 -20
-13 -20 1 -25 9 -13 20 12 12 33 7 33 -7z m214 6 c10 -16 -10 -31 -33 -25 -23
6 -23 7 -6 20 21 15 32 16 39 5z m383 -14 c-3 -8 -6 -5 -6 6 -1 11 2 17 5 13
3 -3 4 -12 1 -19z m2140 -40 c-2 -13 -4 -3 -4 22 0 25 2 35 4 23 2 -13 2 -33
0 -45z m-2894 45 c-7 -2 -19 -2 -25 0 -7 3 -2 5 12 5 14 0 19 -2 13 -5z m491
-9 c9 -3 14 -10 11 -14 -6 -10 -55 0 -55 11 0 10 21 12 44 3z m-439 -14 c-3
-5 -12 -10 -18 -10 -7 0 -6 4 3 10 19 12 23 12 15 0z m2942 -12 c-3 -8 -6 -5
-6 6 -1 11 2 17 5 13 3 -3 4 -12 1 -19z m310 -220 c-1 -46 -3 -9 -3 82 0 91 2
128 3 83 2 -46 2 -120 0 -165z m-2609 207 c3 -25 -14 -53 -25 -41 -4 5 -2 11
5 13 14 5 17 33 3 33 -5 0 -11 -6 -14 -12 -2 -7 -8 -10 -12 -6 -4 4 -5 14 -1
23 8 22 40 15 44 -10z m2739 -327 c-1 -68 -3 -15 -3 117 0 132 2 187 3 123 2
-64 2 -172 0 -240z m-4487 332 c0 -5 -9 -10 -19 -10 -11 0 -23 5 -26 10 -4 6
5 10 19 10 14 0 26 -4 26 -10z m44 -17 c-10 -7 -36 -12 -58 -11 l-41 1 45 7
c25 4 41 8 37 8 -5 1 -6 6 -2 12 3 5 13 6 22 3 14 -6 14 -8 -3 -20z m3489 12
c-3 -9 -8 -14 -10 -11 -3 3 -2 9 2 15 9 16 15 13 8 -4z m304 -32 c-3 -10 -5
-2 -5 17 0 19 2 27 5 18 2 -10 2 -26 0 -35z m540 -60 c-2 -21 -4 -4 -4 37 0
41 2 58 4 38 2 -21 2 -55 0 -75z m80 -255 c-1 -68 -3 -13 -3 122 0 135 2 190
3 123 2 -68 2 -178 0 -245z m-200 209 c-2 -23 -3 -1 -3 48 0 50 1 68 3 42 2
-26 2 -67 0 -90z m-578 105 c8 -14 6 -19 -5 -19 -7 0 -14 9 -14 19 0 10 2 18
5 18 2 0 9 -8 14 -18z m-3581 1 c-10 -2 -28 -2 -40 0 -13 2 -5 4 17 4 22 1 32
-1 23 -4z m65 0 c-7 -2 -21 -2 -30 0 -10 3 -4 5 12 5 17 0 24 -2 18 -5z m3556
-33 c0 -10 -3 -8 -9 5 -12 27 -12 43 0 25 5 -8 9 -22 9 -30z m228 -52 c-2 -18
-4 -4 -4 32 0 36 2 50 4 33 2 -18 2 -48 0 -65z m-3649 75 c-10 -2 -28 -2 -40
0 -13 2 -5 4 17 4 22 1 32 -1 23 -4z m3709 -55 c-2 -13 -4 -3 -4 22 0 25 2 35
4 23 2 -13 2 -33 0 -45z m-1377 42 c0 -5 -7 -10 -16 -10 -8 0 -12 5 -9 10 3 6
10 10 16 10 5 0 9 -4 9 -10z m1607 -12 c-3 -8 -6 -5 -6 6 -1 11 2 17 5 13 3
-3 4 -12 1 -19z m280 -10 c-3 -7 -5 -2 -5 12 0 14 2 19 5 13 2 -7 2 -19 0 -25z
m123 -258 c-4 -113 -8 -187 -10 -165 -2 22 -3 63 -2 90 0 28 2 122 3 210 1 91
4 141 8 115 3 -25 4 -137 1 -250z m-473 138 c-2 -29 -3 -8 -3 47 0 55 1 79 3
53 2 -26 2 -71 0 -100z m-2640 126 c-3 -3 -12 -4 -19 -1 -8 3 -5 6 6 6 11 1
17 -2 13 -5z m226 -1 c-7 -2 -21 -2 -30 0 -10 3 -4 5 12 5 17 0 24 -2 18 -5z
m2274 -40 c-3 -10 -5 -2 -5 17 0 19 2 27 5 18 2 -10 2 -26 0 -35z m190 -165
c-1 -40 -3 -8 -3 72 0 80 2 112 3 73 2 -40 2 -106 0 -145z m-2517 192 c0 -5
-2 -10 -4 -10 -3 0 -8 5 -11 10 -3 6 -1 10 4 10 6 0 11 -4 11 -10z m2607 -217
c-1 -43 -3 -8 -3 77 0 85 2 120 3 78 2 -43 2 -113 0 -155z m-2873 202 c-4 -8
-15 -15 -26 -15 -10 0 -16 5 -13 10 4 6 10 8 15 5 5 -3 11 -1 15 5 9 15 15 12
9 -5z m69 8 c-7 -2 -19 -2 -25 0 -7 3 -2 5 12 5 14 0 19 -2 13 -5z m2684 -70
c-2 -16 -4 -3 -4 27 0 30 2 43 4 28 2 -16 2 -40 0 -55z m-2853 56 c4 6 12 9
17 6 5 -4 3 -12 -4 -20 -13 -14 -37 -2 -37 19 0 6 4 5 9 -3 6 -9 11 -10 15 -2z
m409 4 c-7 -2 -19 -2 -25 0 -7 3 -2 5 12 5 14 0 19 -2 13 -5z m2228 -74 c-3
-75 -2 -82 20 -97 13 -9 26 -16 29 -15 3 0 11 -5 18 -13 8 -9 9 -14 2 -14 -15
0 -230 102 -230 109 0 3 5 13 10 21 8 13 10 13 10 -2 0 -10 11 -19 30 -23 17
-4 30 -10 30 -14 0 -8 45 -31 60 -31 6 0 10 33 10 73 0 60 4 87 14 87 1 0 -1
-36 -3 -81z m556 29 c-2 -13 -4 -5 -4 17 -1 22 1 32 4 23 2 -10 2 -28 0 -40z
m30 -10 c-2 -13 -4 -5 -4 17 -1 22 1 32 4 23 2 -10 2 -28 0 -40z m-730 10 c-3
-8 -6 -5 -6 6 -1 11 2 17 5 13 3 -3 4 -12 1 -19z m90 0 c-3 -8 -6 -5 -6 6 -1
11 2 17 5 13 3 -3 4 -12 1 -19z m-110 6 c-3 -3 -12 -4 -19 -1 -8 3 -5 6 6 6
11 1 17 -2 13 -5z m570 -196 c-1 -40 -3 -10 -3 67 0 77 1 110 3 73 2 -37 2
-100 0 -140z m-4669 164 c2 -7 -3 -12 -12 -12 -9 0 -16 7 -16 16 0 17 22 14
28 -4z m4817 -157 c-4 -80 -10 -144 -12 -141 -7 7 -2 255 6 295 1 2 4 2 7 -2
3 -3 3 -72 -1 -152z m-90 135 c3 -5 1 -10 -4 -10 -6 0 -11 5 -11 10 0 6 2 10
4 10 3 0 8 -4 11 -10z m-2778 -16 c-3 -3 -12 -4 -19 -1 -8 3 -5 6 6 6 11 1 17
-2 13 -5z m1148 -4 c-3 -5 -1 -10 4 -10 15 0 14 -16 -4 -33 -12 -13 -12 -16 7
-20 12 -3 29 -2 39 3 25 14 46 3 52 -26 3 -19 1 -22 -8 -14 -9 8 -15 8 -20 0
-3 -5 -13 -10 -22 -10 -9 0 -24 -7 -33 -15 -14 -13 -17 -12 -28 5 -7 11 -8 20
-3 20 5 0 11 -5 13 -11 2 -7 9 -5 17 5 11 14 11 16 -3 16 -11 0 -15 5 -10 13
6 10 4 10 -7 0 -18 -18 -30 -16 -22 2 3 9 -3 25 -12 35 -16 17 -16 20 -2 20 8
0 17 -5 19 -12 3 -7 10 -8 17 -3 11 6 10 10 -4 18 -14 8 -15 11 -4 18 18 11
22 11 14 -1z m70 -8 c-11 -2 -23 -9 -26 -14 -3 -5 -8 -1 -11 9 -4 16 -1 18 26
14 23 -4 26 -6 11 -9z m1402 -89 c-2 -21 -4 -4 -4 37 0 41 2 58 4 38 2 -21 2
-55 0 -75z m277 -20 c-3 -71 -8 -130 -10 -132 -7 -7 -4 226 2 243 13 34 15 12
8 -111z m-3079 99 c-3 -3 -11 0 -18 7 -9 10 -8 11 6 5 10 -3 15 -9 12 -12z
m249 5 c16 -12 16 -13 -3 -13 -11 0 -18 3 -15 7 2 4 -4 10 -13 12 -14 4 -14 5
-2 6 8 0 23 -5 33 -12z m-1786 -4 c-15 -2 -42 -2 -60 0 -18 2 -6 4 27 4 33 0
48 -2 33 -4z m4319 -90 c-2 -21 -4 -6 -4 32 0 39 2 55 4 38 2 -18 2 -50 0 -70z
m320 -70 c-2 -32 -3 -8 -3 52 0 61 1 87 3 58 2 -29 2 -78 0 -110z m-470 100
c-3 -10 -5 -4 -5 12 0 17 2 24 5 18 2 -7 2 -21 0 -30z m324 -20 c-4 -28 -6
-32 -9 -15 -3 22 3 52 11 52 1 0 1 -17 -2 -37z m-3091 13 c0 -9 -30 -14 -35
-6 -4 6 3 10 14 10 12 0 21 -2 21 -4z m1550 -37 c0 -5 -4 -7 -10 -4 -5 3 -10
1 -10 -4 0 -6 -9 -11 -20 -11 -11 0 -20 4 -20 9 0 8 10 12 53 20 4 0 7 -4 7
-10z m1467 -46 c-3 -10 -5 -4 -5 12 0 17 2 24 5 18 2 -7 2 -21 0 -30z m-1424
11 c4 -4 20 -8 36 -9 16 -1 40 -10 52 -19 l24 -16 -30 2 c-17 1 -36 6 -43 11
-7 6 -16 7 -19 3 -4 -4 -1 -11 7 -17 13 -8 13 -11 -3 -20 -9 -6 -15 -14 -12
-19 3 -4 -4 -6 -15 -3 -11 3 -20 9 -20 14 0 5 7 6 15 3 10 -4 15 0 15 15 0 19
-3 20 -20 11 -16 -8 -18 -8 -14 4 3 9 -3 17 -18 22 l-23 8 25 7 c34 10 36 10
43 3z m200 -39 c4 -8 2 -17 -3 -20 -6 -4 -10 3 -10 14 0 25 6 27 13 6z m-36
-17 c-3 -8 -6 -5 -6 6 -1 11 2 17 5 13 3 -3 4 -12 1 -19z m-86 -27 c-7 -5 -12
-12 -11 -17 3 -18 -16 -13 -28 7 -12 19 -11 20 7 14 10 -3 22 -1 26 5 4 6 10
9 13 5 4 -3 1 -10 -7 -14z m29 -16 c-9 -10 -9 -15 -1 -15 6 0 11 -4 11 -10 0
-16 -17 -12 -24 6 -7 18 0 34 16 34 7 0 6 -6 -2 -15z m1540 5 c0 -5 -2 -10 -4
-10 -3 0 -8 5 -11 10 -3 6 -1 10 4 10 6 0 11 -4 11 -10z m-1400 -10 c0 -5 -5
-10 -11 -10 -5 0 -7 5 -4 10 3 6 8 10 11 10 2 0 4 -4 4 -10z m1423 -31 c-6 -6
-9 -1 -7 13 3 33 6 36 11 14 3 -10 1 -22 -4 -27z m-1583 1 c0 -5 -5 -10 -11
-10 -5 0 -7 5 -4 10 3 6 8 10 11 10 2 0 4 -4 4 -10z m34 -18 c3 -5 -1 -9 -9
-9 -8 0 -12 4 -9 9 3 4 7 8 9 8 2 0 6 -4 9 -8z m71 -42 c3 -5 -1 -10 -10 -10
-9 0 -13 5 -10 10 3 6 8 10 10 10 2 0 7 -4 10 -10z m-65 -181 c0 -6 -4 -7 -10
-4 -5 3 -10 11 -10 16 0 6 5 7 10 4 6 -3 10 -11 10 -16z m-880 -39 c0 -5 -4
-10 -9 -10 -6 0 -13 5 -16 10 -3 6 1 10 9 10 9 0 16 -4 16 -10z m0 -40 c0 -5
-4 -10 -10 -10 -5 0 -10 5 -10 10 0 6 5 10 10 10 6 0 10 -4 10 -10z m1080 -40
c0 -5 -2 -10 -4 -10 -3 0 -8 5 -11 10 -3 6 -1 10 4 10 6 0 11 -4 11 -10z
m-1066 -6 c22 -9 10 -23 -14 -17 -11 3 -17 9 -14 14 6 11 8 11 28 3z m81 -24
c-3 -5 2 -10 11 -10 13 0 15 -3 7 -11 -6 -6 -16 -8 -22 -5 -14 9 -14 36 0 36
5 0 7 -4 4 -10z m-120 -10 c3 -5 13 -6 23 -3 9 4 4 -5 -13 -20 -25 -22 -28
-28 -15 -37 12 -8 12 -10 1 -10 -11 0 -11 -3 -1 -15 7 -8 8 -15 3 -15 -5 0
-15 11 -21 24 -9 19 -7 28 9 45 20 21 20 21 -1 21 -12 0 -18 5 -15 10 8 13 22
13 30 0z m122 -36 c-3 -3 -12 -4 -19 -1 -8 3 -5 6 6 6 11 1 17 -2 13 -5z m889
-24 c16 0 19 -26 4 -35 -6 -3 -7 1 -4 9 4 11 0 16 -10 16 -10 0 -16 8 -15 23
1 16 2 18 6 5 2 -10 11 -18 19 -18z m-960 10 c9 0 13 -4 10 -9 -7 -11 -44 -3
-53 12 -4 7 0 8 11 4 10 -4 24 -7 32 -7z m1009 -9 c0 -8 -6 -16 -12 -18 -7 -3
-13 0 -13 7 0 6 5 8 10 5 6 -3 10 -2 10 4 0 5 -10 12 -22 14 -20 5 -20 5 2 4
14 -1 25 -8 25 -16z m-915 -11 c0 -5 -2 -10 -4 -10 -3 0 -8 5 -11 10 -3 6 -1
10 4 10 6 0 11 -4 11 -10z m-60 -7 c-8 -3 -24 -10 -35 -15 -20 -9 -20 -9 -1 6
11 9 27 16 35 15 14 0 14 -1 1 -6z m1004 -24 c-8 -14 -21 -11 -21 5 0 8 6 12
14 9 7 -3 10 -9 7 -14z m-984 -4 c0 -2 -9 -3 -19 -2 -11 0 -18 5 -15 9 4 6 34
0 34 -7z m950 8 c0 -17 -18 -35 -29 -29 -8 5 -7 11 2 21 13 16 27 19 27 8z
m-904 -11 c6 -4 13 -15 17 -24 4 -12 2 -15 -9 -11 -9 3 -14 -1 -14 -12 0 -12
6 -15 23 -10 17 5 19 4 7 -4 -14 -10 -13 -12 20 -15 8 0 16 -10 17 -21 3 -20
3 -20 -5 0 -9 19 -9 19 -20 0 -6 -11 -12 -14 -12 -7 0 14 -36 16 -45 2 -3 -5
-17 -10 -31 -10 -30 0 -32 20 -1 21 12 0 16 3 9 6 -6 2 -10 9 -7 13 3 5 13 6
21 3 13 -5 15 -1 9 15 -4 13 -2 22 4 22 6 0 11 5 11 11 0 6 -9 8 -22 3 -20 -6
-21 -5 -9 10 15 18 21 19 37 8z m144 4 c0 -2 -7 -7 -16 -10 -8 -3 -12 -2 -9 4
6 10 25 14 25 6z m-280 -32 c0 -8 -5 -12 -10 -9 -6 4 -8 11 -5 16 9 14 15 11
15 -7z m237 10 c-3 -3 -12 -4 -19 -1 -8 3 -5 6 6 6 11 1 17 -2 13 -5z m-205
-51 c-10 -4 -9 -8 5 -19 17 -13 17 -13 -2 -14 -24 0 -39 10 -42 28 -2 7 8 12
25 11 15 0 21 -3 14 -6z m580 -15 c-7 -7 -12 -8 -12 -2 0 14 12 26 19 19 2 -3
-1 -11 -7 -17z m525 -3 c0 -17 0 -17 -22 -9 -13 5 -14 8 -3 15 19 12 25 11 25
-6z m-827 -3 c0 -4 -10 -9 -22 -9 -18 -2 -20 0 -8 7 18 12 30 13 30 2z m830
-33 c0 -4 -7 -6 -15 -3 -8 4 -15 10 -15 15 0 4 7 6 15 3 8 -4 15 -10 15 -15z
m-1631 -16 c9 -18 9 -23 -1 -23 -8 0 -15 12 -16 27 -2 29 0 29 17 -4z m596 6
c5 -6 2 -9 -9 -9 -11 0 -25 -8 -32 -17 -8 -11 -13 -13 -14 -5 0 6 -5 12 -11
12 -6 0 -8 -9 -4 -22 4 -16 4 -19 -3 -9 -8 11 -11 11 -19 -3 -6 -11 -8 -3 -8
28 l0 43 45 -4 c25 -3 49 -9 55 -14z m75 -9 c-8 -5 -24 -9 -35 -9 -16 1 -16 2
5 9 35 11 48 11 30 0z m397 -32 c-3 -7 -5 -2 -5 12 0 14 2 19 5 13 2 -7 2 -19
0 -25z m613 26 c0 -8 -19 -13 -24 -6 -3 5 1 9 9 9 8 0 15 -2 15 -3z m-983 -30
c-3 -3 -12 -4 -19 -1 -8 3 -5 6 6 6 11 1 17 -2 13 -5z m293 -4 c0 -5 7 -10 15
-10 8 0 15 -5 15 -11 0 -6 -6 -9 -14 -6 -8 3 -17 1 -20 -6 -2 -7 -5 -4 -5 6
-1 10 -9 17 -20 17 -11 0 -23 5 -26 10 -4 6 7 10 24 10 17 0 31 -4 31 -10z
m-410 -10 c0 -5 -4 -10 -10 -10 -5 0 -10 5 -10 10 0 6 5 10 10 10 6 0 10 -4
10 -10z m-593 -32 c-3 -8 -6 -5 -6 6 -1 11 2 17 5 13 3 -3 4 -12 1 -19z m983
16 c0 -14 -28 -30 -55 -31 l-30 -1 30 13 30 13 -25 5 c-18 3 -15 5 13 6 20 0
37 -2 37 -5z m-413 -10 c-3 -3 -12 -4 -19 -1 -8 3 -5 6 6 6 11 1 17 -2 13 -5z
m-32 -14 c3 -5 1 -10 -4 -10 -6 0 -11 5 -11 10 0 6 2 10 4 10 3 0 8 -4 11 -10z
m184 -12 c-9 -16 -14 -19 -17 -9 -2 7 2 17 9 22 20 13 21 11 8 -13z m315 11
c-3 -6 0 -15 7 -20 7 -4 10 -11 6 -15 -4 -4 -14 1 -22 12 -19 25 -19 34 1 34
8 0 12 -5 8 -11z m-379 -17 c-3 -3 -11 0 -18 7 -9 10 -8 11 6 5 10 -3 15 -9
12 -12z m189 9 c19 -7 19 -8 -3 -30 -17 -17 -20 -25 -11 -31 14 -9 32 -82 22
-92 -14 -14 -35 11 -37 44 -2 18 -6 45 -10 60 -7 29 -1 59 12 57 4 0 17 -4 27
-8z m-294 -21 c0 -5 -7 -10 -16 -10 -8 0 -12 5 -9 10 3 6 10 10 16 10 5 0 9
-4 9 -10z m407 4 c-3 -3 -12 -4 -19 -1 -8 3 -5 6 6 6 11 1 17 -2 13 -5z m383
-14 c-6 -11 -18 -20 -28 -19 -14 0 -14 2 -2 6 8 3 19 12 23 19 13 22 19 16 7
-6z m-750 -9 c0 -4 -7 -8 -15 -8 -8 0 -15 6 -15 13 0 8 6 11 15 8 8 -4 15 -9
15 -13z m408 0 c-8 -14 -14 -16 -24 -7 -9 8 -7 12 10 18 11 3 22 6 24 7 1 1
-3 -7 -10 -18z m109 -3 c-3 -8 -6 -5 -6 6 -1 11 2 17 5 13 3 -3 4 -12 1 -19z
m-460 -33 c0 -8 -6 -15 -13 -15 -7 0 -20 -3 -30 -7 -11 -4 -15 -3 -11 4 4 6 1
14 -5 17 -7 3 -1 3 13 0 15 -3 30 -1 33 5 10 15 13 14 13 -4z m1286 0 c-3 -9
-8 -14 -10 -11 -3 3 -2 9 2 15 9 16 15 13 8 -4z m-1623 -13 c0 -10 -3 -21 -6
-25 -8 -8 -44 15 -44 27 0 6 5 5 12 -2 17 -17 31 -15 24 3 -3 8 -1 15 4 15 6
0 10 -8 10 -18z m417 11 c-4 -3 1 -12 11 -19 15 -12 14 -13 -11 -14 -25 0 -27
2 -17 20 6 11 14 20 17 20 3 0 3 -3 0 -7z m277 -9 c3 -8 2 -12 -4 -9 -6 3 -10
10 -10 16 0 14 7 11 14 -7z m-1127 -31 c-3 -10 -5 -4 -5 12 0 17 2 24 5 18 2
-7 2 -21 0 -30z m1253 16 c0 -6 -4 -7 -10 -4 -5 3 -10 11 -10 16 0 6 5 7 10 4
6 -3 10 -11 10 -16z m-556 -4 c-4 -10 0 -15 12 -16 12 0 14 -3 6 -6 -7 -3 -19
1 -28 8 -12 10 -12 14 -2 20 18 12 18 11 12 -6z m386 1 c0 -11 -19 -15 -25 -6
-3 5 1 10 9 10 9 0 16 -2 16 -4z m-204 -42 c1 -15 -6 -19 -30 -20 l-31 -1 30
13 c17 7 24 13 18 14 -7 0 -13 5 -13 11 0 19 25 3 26 -17z m224 16 c0 -5 -5
-10 -11 -10 -5 0 -7 5 -4 10 3 6 8 10 11 10 2 0 4 -4 4 -10z m-665 -12 c5 4 5
2 2 -5 -4 -6 -1 -13 5 -16 7 -3 3 -5 -8 -4 -12 1 -27 9 -33 20 -11 16 -10 17
7 8 11 -6 23 -7 27 -3z m-388 -30 c2 -18 0 -20 -7 -8 -6 9 -10 10 -10 3 0 -6
7 -18 15 -26 13 -13 13 -17 -1 -28 -8 -7 -13 -18 -10 -25 3 -7 -2 -15 -10 -18
-8 -3 -14 -19 -14 -40 0 -26 -5 -35 -22 -39 -21 -6 -48 7 -48 23 0 5 8 10 18
12 14 3 13 5 -6 10 -12 3 -20 2 -16 -3 3 -5 0 -9 -5 -9 -20 0 -11 29 10 35 17
6 18 9 8 16 -15 9 -14 11 24 27 19 8 27 19 27 37 0 15 4 23 10 20 5 -3 7 0 4
9 -3 8 2 16 13 19 10 3 18 5 18 6 1 0 2 -9 2 -21z m176 5 c-7 -2 -19 -2 -25 0
-7 3 -2 5 12 5 14 0 19 -2 13 -5z m517 -7 c0 -2 -7 -7 -16 -10 -8 -3 -12 -2
-9 4 6 10 25 14 25 6z m-506 -12 c23 -9 20 -24 -4 -24 -11 0 -20 7 -20 15 0
17 2 18 24 9z m259 -26 c7 -20 -11 -58 -28 -58 -23 0 -19 -35 4 -37 13 -1 18
3 15 11 -3 8 1 16 8 18 9 4 14 -4 15 -23 2 -25 -1 -29 -22 -29 -29 0 -33 -24
-9 -58 8 -12 11 -22 5 -22 -5 0 -13 9 -16 20 -4 11 -10 18 -15 15 -5 -3 -7
-12 -3 -20 3 -8 0 -15 -6 -15 -18 0 -13 -28 6 -32 15 -3 15 -4 0 -19 -15 -15
-14 -17 11 -29 20 -9 23 -14 12 -18 -8 -3 -21 -11 -28 -19 -16 -15 -32 -17
-32 -3 0 6 -12 10 -26 10 -21 0 -24 3 -15 13 13 16 5 27 -21 27 -24 0 -23 21
2 27 21 6 28 33 9 33 -6 0 -8 7 -5 17 4 9 1 20 -6 24 -7 4 -9 11 -5 16 5 4 11
3 15 -2 4 -6 19 -16 35 -22 21 -10 27 -10 27 0 0 7 -5 18 -12 25 -9 9 -7 17
11 36 18 20 21 28 12 44 -6 12 -11 29 -10 39 1 12 3 10 8 -7 l7 -25 11 32 c6
17 9 34 6 37 -4 3 3 6 14 6 12 0 23 -6 26 -12z m260 5 c-7 -2 -19 -2 -25 0 -7
3 -2 5 12 5 14 0 19 -2 13 -5z m62 -11 c-3 -3 -11 0 -18 7 -9 10 -8 11 6 5 10
-3 15 -9 12 -12z m1575 14 c0 -3 -4 -8 -10 -11 -5 -3 -10 -1 -10 4 0 6 5 11
10 11 6 0 10 -2 10 -4z m-103 -12 c-3 -3 -12 -4 -19 -1 -8 3 -5 6 6 6 11 1 17
-2 13 -5z m-1762 -14 c3 -5 1 -10 -4 -10 -6 0 -11 5 -11 10 0 6 2 10 4 10 3 0
8 -4 11 -10z m350 0 c-3 -5 -11 -10 -16 -10 -6 0 -7 5 -4 10 3 6 11 10 16 10
6 0 7 -4 4 -10z m360 0 c3 -5 2 -10 -4 -10 -5 0 -13 5 -16 10 -3 6 -2 10 4 10
5 0 13 -4 16 -10z m1270 -23 c16 -5 15 -5 -4 -4 -14 1 -26 9 -28 17 -3 10 -2
11 4 4 4 -7 17 -14 28 -17z m-3375 3 c-8 -5 -19 -10 -25 -10 -5 0 -3 5 5 10 8
5 20 10 25 10 6 0 3 -5 -5 -10z m1060 -6 c0 -2 -7 -4 -15 -4 -8 0 -15 4 -15
10 0 5 7 7 15 4 8 -4 15 -8 15 -10z m580 6 c0 -5 -4 -10 -10 -10 -5 0 -10 5
-10 10 0 6 5 10 10 10 6 0 10 -4 10 -10z m1677 -6 c-3 -3 -12 -4 -19 -1 -8 3
-5 6 6 6 11 1 17 -2 13 -5z m-157 -14 c0 -5 -5 -10 -11 -10 -5 0 -7 5 -4 10 3
6 8 10 11 10 2 0 4 -4 4 -10z m-1880 -15 c0 -9 -6 -12 -16 -8 -13 5 -13 7 -2
14 17 11 18 11 18 -6z m-500 -20 c0 -8 -7 -15 -15 -15 -9 0 -12 6 -9 15 4 8
10 15 15 15 5 0 9 -7 9 -15z m1597 9 c-3 -3 -12 -4 -19 -1 -8 3 -5 6 6 6 11 1
17 -2 13 -5z m848 -4 c3 -5 2 -10 -4 -10 -5 0 -13 5 -16 10 -3 6 -2 10 4 10 5
0 13 -4 16 -10z m-1580 -20 c-3 -5 -11 -10 -16 -10 -6 0 -7 5 -4 10 3 6 11 10
16 10 6 0 7 -4 4 -10z m735 -4 c0 -3 -4 -8 -10 -11 -5 -3 -10 -1 -10 4 0 6 5
11 10 11 6 0 10 -2 10 -4z m887 -11 c8 -9 13 -18 11 -21 -3 -2 -13 5 -23 16
-21 23 -11 27 12 5z m-2007 -15 c0 -5 -4 -10 -10 -10 -5 0 -10 5 -10 10 0 6 5
10 10 10 6 0 10 -4 10 -10z m1865 -50 c-3 -4 -2 -10 2 -13 5 -2 1 -2 -7 1 -8
3 -24 4 -35 4 -17 -1 -17 1 5 13 25 13 45 11 35 -5z m-1408 -6 c-3 -3 -12 -4
-19 -1 -8 3 -5 6 6 6 11 1 17 -2 13 -5z m-825 -39 c-2 -14 -8 -25 -12 -25 -5
0 -7 8 -5 18 2 9 4 20 4 25 1 4 5 7 10 7 4 0 6 -11 3 -25z m813 -15 c-3 -5
-14 -10 -23 -10 -15 0 -15 2 -2 10 20 13 33 13 25 0z m1768 3 c-7 -2 -19 -2
-25 0 -7 3 -2 5 12 5 14 0 19 -2 13 -5z m-3973 -7 c0 -2 -7 -7 -16 -10 -8 -3
-12 -2 -9 4 6 10 25 14 25 6z m3926 -19 c3 -2 -9 -4 -26 -5 -17 0 -28 3 -25 8
5 8 43 6 51 -3z m-2259 -39 c-3 -7 -5 -2 -5 12 0 14 2 19 5 13 2 -7 2 -19 0
-25z m558 21 c4 -6 5 -13 2 -15 -7 -8 -57 7 -57 17 0 13 47 11 55 -2z m680
-18 c0 -8 -6 -15 -13 -17 -7 -1 -8 0 -2 3 5 2 10 9 10 14 0 6 -8 6 -19 -1 -11
-5 -35 -9 -53 -9 l-33 2 30 4 c17 3 34 9 40 14 14 13 40 7 40 -10z m-1185 -1
c0 -5 -5 -10 -11 -10 -5 0 -7 5 -4 10 3 6 8 10 11 10 2 0 4 -4 4 -10z m-1765
-20 c3 -6 -1 -7 -9 -4 -18 7 -21 14 -7 14 6 0 13 -4 16 -10z m2245 6 c0 -3 -4
-8 -10 -11 -5 -3 -10 -1 -10 4 0 6 5 11 10 11 6 0 10 -2 10 -4z m585 -6 c-3
-5 -10 -10 -16 -10 -5 0 -9 5 -9 10 0 6 7 10 16 10 8 0 12 -4 9 -10z m-1000
-6 c13 -5 11 -9 -11 -20 -14 -8 -30 -12 -34 -9 -5 3 -11 1 -14 -4 -7 -11 36
-23 44 -12 3 4 16 13 30 20 l25 12 -22 -20 c-28 -23 -29 -31 -5 -32 16 -1 16
-2 0 -6 -21 -5 -23 -14 -6 -31 14 -14 -13 -27 -42 -19 -23 6 -24 3 -8 -23 10
-16 10 -24 0 -40 -14 -23 0 -27 18 -5 7 8 17 15 23 15 6 0 -4 -12 -22 -27
l-32 -27 23 -13 23 -12 -26 -1 c-26 0 -45 21 -31 34 9 9 10 50 2 56 -12 8 -19
90 -7 90 6 0 8 3 4 6 -14 15 -47 -9 -48 -34 l-1 -27 -7 25 c-4 15 -3 28 3 33
7 5 6 11 -4 18 -12 9 -11 10 6 6 12 -2 28 -1 35 4 10 6 11 9 2 9 -20 0 -15 28
5 33 27 7 59 8 77 1z m1735 -2 c0 -5 -7 -9 -15 -9 -8 0 -12 4 -9 9 3 4 9 8 15
8 5 0 9 -4 9 -8z m354 0 c3 -5 -1 -9 -9 -9 -8 0 -15 4 -15 9 0 4 4 8 9 8 6 0
12 -4 15 -8z m-2234 -42 c0 -5 -2 -10 -4 -10 -3 0 -8 5 -11 10 -3 6 -1 10 4
10 6 0 11 -4 11 -10z m620 -9 c0 -5 -13 -9 -30 -9 -16 1 -30 5 -30 10 0 4 14
8 30 8 17 0 30 -4 30 -9z m600 -1 c-8 -5 -22 -9 -30 -9 -10 0 -8 3 5 9 27 12
43 12 25 0z m-570 -21 c0 -5 -4 -9 -10 -9 -5 0 -10 7 -10 16 0 8 5 12 10 9 6
-3 10 -10 10 -16z m1197 15 c-3 -3 -12 -4 -19 -1 -8 3 -5 6 6 6 11 1 17 -2 13
-5z m-1800 -46 c-3 -8 -6 -5 -6 6 -1 11 2 17 5 13 3 -3 4 -12 1 -19z m583 11
c12 -8 12 -9 -5 -7 -11 1 -26 -1 -33 -6 -7 -4 -16 -5 -20 -1 -7 7 17 25 33 25
6 0 17 -5 25 -11z m-1970 -13 c0 -3 -4 -8 -10 -11 -5 -3 -10 -1 -10 4 0 6 5
11 10 11 6 0 10 -2 10 -4z m1990 -16 c0 -5 -5 -10 -11 -10 -5 0 -7 5 -4 10 3
6 8 10 11 10 2 0 4 -4 4 -10z m-423 -26 c-3 -3 -12 -4 -19 -1 -8 3 -5 6 6 6
11 1 17 -2 13 -5z m370 0 c-3 -3 -12 -4 -19 -1 -8 3 -5 6 6 6 11 1 17 -2 13
-5z m53 -9 c-11 -13 -10 -14 4 -9 9 3 16 1 16 -5 0 -6 6 -8 14 -5 31 12 26
-17 -5 -30 -31 -13 -34 -13 -46 10 -14 28 -8 54 14 54 13 0 13 -3 3 -15z
m1470 6 c0 -6 -5 -13 -12 -17 -6 -4 -8 -3 -4 4 3 5 0 13 -6 15 -8 3 -6 6 5 6
9 1 17 -3 17 -8z m507 3 c-3 -3 -12 -4 -19 -1 -8 3 -5 6 6 6 11 1 17 -2 13 -5z
m-617 -24 c0 -5 -2 -10 -4 -10 -3 0 -8 5 -11 10 -3 6 -1 10 4 10 6 0 11 -4 11
-10z m274 -5 c-4 -8 -11 -12 -16 -9 -6 4 -5 10 3 15 19 12 19 11 13 -6z
m-4344 -5 c0 -5 -4 -10 -10 -10 -5 0 -10 5 -10 10 0 6 5 10 10 10 6 0 10 -4
10 -10z m165 0 c3 -5 1 -10 -4 -10 -6 0 -11 5 -11 10 0 6 2 10 4 10 3 0 8 -4
11 -10z m4195 -21 c-7 -11 -14 -18 -17 -15 -3 3 0 12 7 21 18 21 23 19 10 -6z
m-1710 1 c0 -5 -4 -10 -10 -10 -5 0 -10 5 -10 10 0 6 5 10 10 10 6 0 10 -4 10
-10z m110 -20 c0 -5 -2 -10 -4 -10 -3 0 -8 5 -11 10 -3 6 -1 10 4 10 6 0 11
-4 11 -10z m9 -43 c-22 -8 -23 -10 -5 -16 14 -5 16 -10 8 -15 -7 -4 -18 -4
-24 1 -7 4 -23 6 -35 4 -24 -3 -31 13 -11 25 17 11 72 21 82 16 5 -3 -1 -10
-15 -15z m-749 -18 c0 -5 -7 -9 -15 -9 -9 0 -15 9 -15 21 0 18 2 19 15 9 8 -7
15 -16 15 -21z m866 4 c-6 -6 -36 9 -36 18 0 5 9 4 20 -3 10 -7 18 -14 16 -15z
m1879 7 c3 -5 1 -10 -4 -10 -6 0 -11 5 -11 10 0 6 2 10 4 10 3 0 8 -4 11 -10z
m-2595 -20 c0 -5 -2 -10 -4 -10 -3 0 -8 5 -11 10 -3 6 -1 10 4 10 6 0 11 -4
11 -10z m2325 0 c3 -5 1 -10 -4 -10 -6 0 -11 5 -11 10 0 6 2 10 4 10 3 0 8 -4
11 -10z m280 -10 c3 -5 1 -10 -4 -10 -6 0 -11 5 -11 10 0 6 2 10 4 10 3 0 8
-4 11 -10z m-1961 -22 c-7 -10 -51 -10 -58 0 -2 4 10 8 29 8 19 0 31 -4 29 -8z
m1476 8 c0 -3 -4 -8 -10 -11 -5 -3 -10 -1 -10 4 0 6 5 11 10 11 6 0 10 -2 10
-4z"/>
<path d="M994 2569 c-3 -5 14 -9 37 -9 23 0 39 3 35 7 -11 11 -66 12 -72 2z"/>
<path d="M930 2560 c0 -5 11 -10 25 -10 14 0 25 5 25 10 0 6 -11 10 -25 10
-14 0 -25 -4 -25 -10z"/>
<path d="M1797 2564 c-4 -4 -7 -16 -7 -26 0 -18 1 -18 16 -3 11 10 13 20 7 26
-5 5 -12 6 -16 3z"/>
<path d="M2162 2585 c0 -16 2 -22 5 -12 2 9 2 23 0 30 -3 6 -5 -1 -5 -18z"/>
<path d="M2150 2531 c0 -6 5 -13 10 -16 6 -3 10 1 10 9 0 9 -4 16 -10 16 -5 0
-10 -4 -10 -9z"/>
<path d="M1200 2320 c0 -6 11 -8 28 -4 39 10 40 14 4 14 -18 0 -32 -5 -32 -10z"/>
<path d="M1295 2321 l-30 -7 30 -5 c17 -2 50 -1 75 2 25 3 38 7 29 7 -9 1 -29
4 -45 6 -16 2 -42 1 -59 -3z"/>
<path d="M3190 1875 c-10 -12 -10 -15 2 -15 8 0 15 7 15 15 0 8 -1 15 -2 15
-2 0 -8 -7 -15 -15z"/>
<path d="M2260 509 c0 -5 5 -7 10 -4 6 3 10 8 10 11 0 2 -4 4 -10 4 -5 0 -10
-5 -10 -11z"/>
<path d="M2268 353 c7 -3 16 -2 19 1 4 3 -2 6 -13 5 -11 0 -14 -3 -6 -6z"/>
<path d="M2258 293 c7 -3 16 -2 19 1 4 3 -2 6 -13 5 -11 0 -14 -3 -6 -6z"/>
<path d="M3495 3890 c3 -5 8 -10 11 -10 2 0 4 5 4 10 0 6 -5 10 -11 10 -5 0
-7 -4 -4 -10z"/>
<path d="M3410 3805 c0 -8 2 -15 4 -15 2 0 6 7 10 15 3 8 1 15 -4 15 -6 0 -10
-7 -10 -15z"/>
<path d="M1825 3660 c3 -5 8 -10 11 -10 2 0 4 5 4 10 0 6 -5 10 -11 10 -5 0
-7 -4 -4 -10z"/>
<path d="M2979 3590 c-5 -41 -5 -70 1 -70 12 0 20 54 9 65 -5 5 -9 7 -10 5z"/>
<path d="M3091 3574 c0 -11 3 -14 6 -6 3 7 2 16 -1 19 -3 4 -6 -2 -5 -13z"/>
<path d="M4525 3491 c-3 -5 -1 -12 5 -16 5 -3 10 1 10 9 0 18 -6 21 -15 7z"/>
<path d="M4505 3449 c-4 -6 -5 -13 -2 -16 7 -7 27 6 27 18 0 12 -17 12 -25 -2z"/>
<path d="M4482 2990 c0 -14 2 -19 5 -12 2 6 2 18 0 25 -3 6 -5 1 -5 -13z"/>
<path d="M4951 2934 c0 -11 3 -14 6 -6 3 7 2 16 -1 19 -3 4 -6 -2 -5 -13z"/>
<path d="M4642 2860 c0 -14 2 -19 5 -12 2 6 2 18 0 25 -3 6 -5 1 -5 -13z"/>
<path d="M4984 2795 c0 -49 1 -71 3 -48 2 23 2 64 0 90 -2 26 -3 8 -3 -42z"/>
<path d="M4164 2735 c0 -77 2 -107 3 -67 2 40 2 103 0 140 -2 37 -3 4 -3 -73z"/>
<path d="M4694 2645 c0 -115 2 -161 3 -102 2 59 2 154 0 210 -1 56 -3 8 -3
-108z"/>
<path d="M4373 2800 c0 -25 2 -35 4 -22 2 12 2 32 0 45 -2 12 -4 2 -4 -23z"/>
<path d="M4574 2675 c0 -93 2 -133 3 -88 2 45 2 122 0 170 -1 48 -3 12 -3 -82z"/>
<path d="M4592 2815 c0 -16 2 -22 5 -12 2 9 2 23 0 30 -3 6 -5 -1 -5 -18z"/>
<path d="M4854 2640 c0 -113 2 -159 3 -102 2 56 2 148 0 205 -1 56 -3 10 -3
-103z"/>
<path d="M4822 2715 l2 -120 6 100 c3 55 2 109 -2 120 -4 11 -6 -34 -6 -100z"/>
<path d="M4283 2770 c0 -25 2 -35 4 -22 2 12 2 32 0 45 -2 12 -4 2 -4 -23z"/>
<path d="M4644 2625 c0 -104 2 -146 3 -92 2 54 2 139 0 190 -1 51 -3 7 -3 -98z"/>
<path d="M4882 2790 c0 -14 2 -19 5 -12 2 6 2 18 0 25 -3 6 -5 1 -5 -13z"/>
<path d="M4482 2780 c0 -14 2 -19 5 -12 2 6 2 18 0 25 -3 6 -5 1 -5 -13z"/>
<path d="M4744 2620 c0 -102 2 -143 3 -92 2 50 2 134 0 185 -1 50 -3 9 -3 -93z"/>
<path d="M4911 2784 c0 -11 3 -14 6 -6 3 7 2 16 -1 19 -3 4 -6 -2 -5 -13z"/>
<path d="M4711 2754 c0 -11 3 -14 6 -6 3 7 2 16 -1 19 -3 4 -6 -2 -5 -13z"/>
<path d="M4791 2754 c0 -11 3 -14 6 -6 3 7 2 16 -1 19 -3 4 -6 -2 -5 -13z"/>
<path d="M4944 2585 c0 -104 2 -146 3 -92 2 54 2 139 0 190 -1 51 -3 7 -3 -98z"/>
<path d="M4594 2670 c0 -52 1 -74 3 -47 2 26 2 68 0 95 -2 26 -3 4 -3 -48z"/>
<path d="M4909 2603 c-1 -87 -3 -168 -4 -180 -1 -13 1 -23 6 -23 4 0 8 81 9
180 0 99 -2 180 -5 180 -3 0 -6 -71 -6 -157z"/>
<path d="M4882 2720 c0 -19 2 -27 5 -17 2 9 2 25 0 35 -3 9 -5 1 -5 -18z"/>
<path d="M4284 2600 c0 -58 1 -81 3 -52 2 28 2 76 0 105 -2 28 -3 5 -3 -53z"/>
<path d="M4976 2685 c-3 -9 -5 -83 -4 -163 l2 -147 6 160 c3 88 4 161 4 163
-1 2 -4 -4 -8 -13z"/>
<path d="M4713 2640 c0 -30 2 -43 4 -27 2 15 2 39 0 55 -2 15 -4 2 -4 -28z"/>
<path d="M4773 2645 c0 -27 2 -38 4 -22 2 15 2 37 0 50 -2 12 -4 0 -4 -28z"/>
<path d="M3535 2670 c-3 -5 1 -10 10 -10 9 0 13 5 10 10 -3 6 -8 10 -10 10 -2
0 -7 -4 -10 -10z"/>
<path d="M4878 2548 c-2 -73 0 -137 4 -143 5 -5 8 55 8 133 0 78 -2 142 -4
142 -3 0 -6 -60 -8 -132z"/>
<path d="M4203 2595 c0 -44 2 -61 4 -37 2 23 2 59 0 80 -2 20 -4 1 -4 -43z"/>
<path d="M4444 2575 c0 -55 1 -76 3 -47 2 29 2 74 0 100 -2 26 -3 2 -3 -53z"/>
<path d="M4483 2595 c0 -44 2 -61 4 -37 2 23 2 59 0 80 -2 20 -4 1 -4 -43z"/>
<path d="M4663 2625 c0 -22 2 -30 4 -17 2 12 2 30 0 40 -3 9 -5 -1 -4 -23z"/>
<path d="M4612 2630 c0 -14 2 -19 5 -12 2 6 2 18 0 25 -3 6 -5 1 -5 -13z"/>
<path d="M3580 2636 c0 -2 7 -9 15 -16 9 -7 15 -8 15 -2 0 5 -7 12 -15 16 -8
3 -15 4 -15 2z"/>
<path d="M3508 2623 c7 -3 16 -2 19 1 4 3 -2 6 -13 5 -11 0 -14 -3 -6 -6z"/>
<path d="M3948 2588 c-9 -6 -5 -7 11 -3 19 6 23 4 18 -9 -8 -21 -1 -20 23 2
18 16 17 17 -10 18 -16 1 -35 -3 -42 -8z"/>
<path d="M4503 2550 c0 -30 2 -43 4 -27 2 15 2 39 0 55 -2 15 -4 2 -4 -28z"/>
<path d="M4794 2515 c0 -49 1 -71 3 -48 2 23 2 64 0 90 -2 26 -3 8 -3 -42z"/>
<path d="M3818 2583 c7 -3 16 -2 19 1 4 3 -2 6 -13 5 -11 0 -14 -3 -6 -6z"/>
<path d="M4823 2510 c0 -47 2 -66 4 -42 2 23 2 61 0 85 -2 23 -4 4 -4 -43z"/>
<path d="M4050 2576 c0 -2 8 -10 18 -17 15 -13 16 -12 3 4 -13 16 -21 21 -21
13z"/>
<path d="M4663 2545 c0 -22 2 -30 4 -17 2 12 2 30 0 40 -3 9 -5 -1 -4 -23z"/>
<path d="M4712 2540 c0 -109 -2 -131 -13 -124 -7 4 -1 -7 12 -25 23 -31 59
-42 59 -18 0 9 11 13 33 10 l32 -3 -30 9 c-16 5 -42 12 -56 15 -25 5 -26 9
-22 48 2 24 0 63 -6 88 l-10 45 1 -45z"/>
<path d="M3820 2562 c0 -13 39 -32 45 -22 6 9 1 13 -27 23 -10 4 -18 3 -18 -1z"/>
<path d="M4542 2535 c0 -16 2 -22 5 -12 2 9 2 23 0 30 -3 6 -5 -1 -5 -18z"/>
<path d="M4591 2524 c0 -11 3 -14 6 -6 3 7 2 16 -1 19 -3 4 -6 -2 -5 -13z"/>
<path d="M4320 2510 c-13 -8 -12 -10 3 -10 9 0 17 5 17 10 0 12 -1 12 -20 0z"/>
<path d="M4462 2500 c0 -14 2 -19 5 -12 2 6 2 18 0 25 -3 6 -5 1 -5 -13z"/>
<path d="M4350 2500 c0 -5 5 -10 11 -10 5 0 7 5 4 10 -3 6 -8 10 -11 10 -2 0
-4 -4 -4 -10z"/>
<path d="M1010 2450 c0 -5 5 -10 10 -10 6 0 10 5 10 10 0 6 -4 10 -10 10 -5 0
-10 -4 -10 -10z"/>
<path d="M4808 2413 c7 -3 16 -2 19 1 4 3 -2 6 -13 5 -11 0 -14 -3 -6 -6z"/>
<path d="M4850 2376 c0 -2 11 -6 25 -8 14 -3 25 -1 25 3 0 5 -11 9 -25 9 -14
0 -25 -2 -25 -4z"/>
<path d="M4949 2357 c5 -5 19 -7 32 -5 20 3 19 5 -9 9 -20 3 -29 2 -23 -4z"/>
<path d="M2550 1980 c0 -5 5 -10 11 -10 5 0 7 5 4 10 -3 6 -8 10 -11 10 -2 0
-4 -4 -4 -10z"/>
<path d="M3008 1803 c6 -2 18 -2 25 0 6 3 1 5 -13 5 -14 0 -19 -2 -12 -5z"/>
<path d="M2508 1783 c7 -3 16 -2 19 1 4 3 -2 6 -13 5 -11 0 -14 -3 -6 -6z"/>
<path d="M2443 1763 c9 -2 25 -2 35 0 9 3 1 5 -18 5 -19 0 -27 -2 -17 -5z"/>
<path d="M2638 1733 c6 -2 18 -2 25 0 6 3 1 5 -13 5 -14 0 -19 -2 -12 -5z"/>
<path d="M3005 1730 c-3 -5 -1 -10 4 -10 6 0 11 5 11 10 0 6 -2 10 -4 10 -3 0
-8 -4 -11 -10z"/>
<path d="M3035 1730 c3 -5 20 -10 36 -10 18 0 28 4 24 10 -3 6 -20 10 -36 10
-18 0 -28 -4 -24 -10z"/>
<path d="M2500 1636 c0 -2 7 -7 16 -10 8 -3 12 -2 9 4 -6 10 -25 14 -25 6z"/>
<path d="M2591 1616 c2 -2 20 -6 39 -10 25 -4 31 -3 20 4 -14 9 -69 15 -59 6z"/>
<path d="M2580 1490 c0 -5 5 -10 12 -10 6 0 8 -3 5 -6 -4 -4 -13 -1 -21 5 -8
7 -17 8 -20 3 -8 -13 4 -22 31 -22 25 0 26 1 17 24 -7 18 -24 22 -24 6z"/>
<path d="M2538 1443 c12 -2 32 -2 45 0 12 2 2 4 -23 4 -25 0 -35 -2 -22 -4z"/>
<path d="M2620 1435 c0 -12 -5 -15 -22 -9 -21 6 -21 6 -5 -11 10 -10 19 -16
20 -14 2 2 8 11 15 21 9 11 10 18 2 23 -5 3 -10 -1 -10 -10z"/>
<path d="M2637 1406 c-4 -10 -1 -13 8 -9 8 3 12 9 9 14 -7 12 -11 11 -17 -5z"/>
<path d="M2067 1363 c-4 -3 -7 -11 -7 -17 0 -6 5 -5 12 2 6 6 9 14 7 17 -3 3
-9 2 -12 -2z"/>
<path d="M2101 1361 c0 -8 -8 -19 -17 -26 -16 -11 -16 -12 0 -18 11 -4 16 -1
16 11 0 10 3 13 8 6 8 -13 42 -15 42 -2 0 4 -9 8 -19 8 -11 0 -22 8 -24 18 -3
10 -5 11 -6 3z"/>
<path d="M2900 1350 c-8 -5 -10 -10 -5 -10 6 0 17 5 25 10 8 5 11 10 5 10 -5
0 -17 -5 -25 -10z"/>
<path d="M3415 1350 c3 -5 11 -10 16 -10 6 0 7 5 4 10 -3 6 -11 10 -16 10 -6
0 -7 -4 -4 -10z"/>
<path d="M2042 1278 c-9 -36 -2 -45 25 -29 17 9 17 10 1 16 -22 9 -24 25 -3
25 8 0 15 5 15 10 0 25 -30 7 -38 -22z"/>
<path d="M2850 1300 c0 -5 6 -10 14 -10 8 0 18 5 21 10 3 6 -3 10 -14 10 -12
0 -21 -4 -21 -10z"/>
<path d="M2300 1290 c8 -5 20 -10 25 -10 6 0 3 5 -5 10 -8 5 -19 10 -25 10 -5
0 -3 -5 5 -10z"/>
<path d="M2340 1296 c0 -2 7 -9 15 -16 9 -7 15 -8 15 -2 0 5 -7 12 -15 16 -8
3 -15 4 -15 2z"/>
<path d="M2145 1280 c-3 -5 -1 -10 4 -10 6 0 11 5 11 10 0 6 -2 10 -4 10 -3 0
-8 -4 -11 -10z"/>
<path d="M2830 1282 c0 -4 9 -13 20 -20 22 -13 27 -3 8 16 -14 14 -28 16 -28
4z"/>
<path d="M2180 1266 c0 -8 -6 -16 -12 -19 -7 -3 -3 -4 10 -4 22 1 30 21 12 32
-5 3 -10 0 -10 -9z"/>
<path d="M2120 1250 c0 -5 5 -10 10 -10 6 0 10 5 10 10 0 6 -4 10 -10 10 -5 0
-10 -4 -10 -10z"/>
<path d="M2220 1251 c0 -6 4 -13 10 -16 6 -3 7 1 4 9 -7 18 -14 21 -14 7z"/>
<path d="M3083 1253 c9 -2 23 -2 30 0 6 3 -1 5 -18 5 -16 0 -22 -2 -12 -5z"/>
<path d="M2387 1236 c-4 -10 -5 -21 -2 -24 9 -9 17 6 13 25 -3 17 -4 17 -11
-1z"/>
<path d="M2811 1236 l-25 -14 33 -7 c36 -8 73 12 49 26 -18 12 -29 11 -57 -5z"/>
<path d="M2075 1229 c-37 -6 -34 -8 18 -13 17 -2 15 -40 -3 -48 -11 -5 -9 -7
8 -7 18 -1 22 4 22 28 0 26 4 30 33 33 l32 3 -35 5 c-19 3 -53 2 -75 -1z"/>
<path d="M3272 1220 c0 -14 2 -19 5 -12 2 6 2 18 0 25 -3 6 -5 1 -5 -13z"/>
<path d="M3065 1198 c6 -14 45 -20 45 -6 0 4 -4 8 -9 8 -5 0 -17 3 -25 6 -11
4 -15 2 -11 -8z"/>
<path d="M2380 1181 c0 -6 4 -11 10 -11 5 0 7 -6 4 -14 -3 -8 0 -17 6 -21 8
-5 10 2 8 21 -3 26 -28 48 -28 25z"/>
<path d="M3260 1180 c0 -5 5 -10 11 -10 5 0 7 5 4 10 -3 6 -8 10 -11 10 -2 0
-4 -4 -4 -10z"/>
<path d="M2150 1170 c14 -4 20 -8 13 -9 -7 -1 -10 -8 -7 -16 9 -24 24 -17 24
10 0 21 -5 25 -27 24 l-28 -1 25 -8z"/>
<path d="M2201 1144 c0 -11 3 -14 6 -6 3 7 2 16 -1 19 -3 4 -6 -2 -5 -13z"/>
<path d="M2070 1141 c0 -12 29 -35 36 -28 4 3 -1 13 -9 22 -17 17 -27 19 -27
6z"/>
<path d="M2390 1103 c0 -4 5 -15 10 -23 7 -11 12 -12 21 -3 8 8 6 14 -10 22
-12 7 -21 8 -21 4z"/>
<path d="M3469 1088 c-6 -21 -5 -39 2 -44 5 -3 9 2 9 11 0 9 4 13 10 10 6 -3
7 1 4 9 -5 13 -22 22 -25 14z"/>
<path d="M2970 1060 c0 -5 7 -10 15 -10 8 0 15 5 15 10 0 6 -7 10 -15 10 -8 0
-15 -4 -15 -10z"/>
<path d="M1795 1050 c-3 -5 -1 -10 4 -10 6 0 11 5 11 10 0 6 -2 10 -4 10 -3 0
-8 -4 -11 -10z"/>
<path d="M2380 1045 c0 -7 -2 -19 -5 -27 -4 -9 3 -13 19 -13 16 0 22 4 16 10
-6 5 -10 14 -10 20 0 5 5 3 11 -5 8 -11 12 -12 16 -3 9 24 8 26 -19 29 -18 2
-28 -2 -28 -11z"/>
<path d="M2122 1015 c3 -28 19 -33 38 -10 15 18 5 35 -20 35 -15 0 -19 -6 -18
-25z"/>
<path d="M2283 983 c9 -2 23 -2 30 0 6 3 -1 5 -18 5 -16 0 -22 -2 -12 -5z"/>
<path d="M2363 983 c8 -7 77 -6 85 2 3 3 -16 5 -43 5 -27 0 -45 -3 -42 -7z"/>
<path d="M1780 970 c0 -5 5 -10 10 -10 6 0 10 5 10 10 0 6 -4 10 -10 10 -5 0
-10 -4 -10 -10z"/>
<path d="M3556 963 c2 -7 -1 -13 -6 -13 -6 0 -10 5 -10 12 0 6 -3 9 -6 5 -3
-3 -3 -15 1 -26 6 -20 8 -20 35 -6 18 9 31 11 35 5 3 -6 1 -10 -6 -10 -9 0
-10 -3 -2 -11 6 -6 38 -12 71 -14 46 -2 62 1 66 12 8 21 8 23 -10 23 -9 0 -12
-5 -8 -12 6 -10 4 -10 -7 -2 -20 16 -72 28 -64 14 10 -16 -11 -12 -25 5 -7 8
-23 15 -35 15 -13 0 -25 3 -28 8 -2 4 -2 1 -1 -5z"/>
<path d="M2396 963 c-10 -10 -7 -33 5 -33 5 0 7 5 4 11 -5 7 5 8 32 3 21 -4
36 -4 33 -2 -10 10 -69 26 -74 21z"/>
<path d="M2278 953 c6 -2 18 -2 25 0 6 3 1 5 -13 5 -14 0 -19 -2 -12 -5z"/>
<path d="M2440 919 c0 -5 5 -7 10 -4 6 3 10 8 10 11 0 2 -4 4 -10 4 -5 0 -10
-5 -10 -11z"/>
<path d="M2288 913 c7 -3 16 -2 19 1 4 3 -2 6 -13 5 -11 0 -14 -3 -6 -6z"/>
<path d="M3565 910 c3 -5 8 -10 11 -10 2 0 4 5 4 10 0 6 -5 10 -11 10 -5 0 -7
-4 -4 -10z"/>
<path d="M3380 886 c0 -9 5 -16 10 -16 6 0 10 4 10 9 0 6 -4 13 -10 16 -5 3
-10 -1 -10 -9z"/>
<path d="M1815 880 c-3 -5 1 -10 9 -10 9 0 16 5 16 10 0 6 -4 10 -9 10 -6 0
-13 -4 -16 -10z"/>
<path d="M3660 871 c0 -5 16 -9 35 -8 21 1 30 4 22 9 -17 11 -57 10 -57 -1z"/>
<path d="M3618 853 c7 -3 16 -2 19 1 4 3 -2 6 -13 5 -11 0 -14 -3 -6 -6z"/>
<path d="M3710 819 c0 -5 5 -7 10 -4 6 3 10 8 10 11 0 2 -4 4 -10 4 -5 0 -10
-5 -10 -11z"/>
<path d="M3765 820 c3 -5 8 -10 11 -10 2 0 4 5 4 10 0 6 -5 10 -11 10 -5 0 -7
-4 -4 -10z"/>
<path d="M3620 806 c0 -8 5 -18 10 -21 6 -3 10 1 10 9 0 8 -4 18 -10 21 -5 3
-10 -1 -10 -9z"/>
<path d="M3567 773 c-5 -25 20 -60 33 -46 3 2 -2 10 -11 16 -12 9 -14 18 -8
35 5 12 5 22 0 22 -5 0 -11 -12 -14 -27z"/>
<path d="M3600 760 c0 -5 5 -10 11 -10 5 0 7 5 4 10 -3 6 -8 10 -11 10 -2 0
-4 -4 -4 -10z"/>
<path d="M3748 743 c7 -3 16 -2 19 1 4 3 -2 6 -13 5 -11 0 -14 -3 -6 -6z"/>
<path d="M3791 743 c-1 -8 -18 -12 -48 -12 -27 0 -59 -3 -73 -6 -14 -3 -43 -9
-65 -13 l-40 -6 30 -7 c54 -12 120 -9 141 6 12 8 24 12 27 8 4 -3 15 0 24 8
15 11 16 11 6 -1 -16 -18 -17 -34 -1 -24 7 5 8 3 3 -6 -4 -7 -2 -16 6 -21 33
-20 40 2 12 34 -17 19 -17 19 5 13 13 -5 22 -3 22 3 0 6 -9 11 -19 11 -11 0
-22 6 -24 13 -4 9 -6 9 -6 0z"/>
<path d="M1755 720 c-3 -5 -2 -10 4 -10 5 0 13 5 16 10 3 6 2 10 -4 10 -5 0
-13 -4 -16 -10z"/>
<path d="M1670 669 c0 -5 9 -9 20 -9 11 0 20 2 20 4 0 2 -9 6 -20 9 -11 3 -20
1 -20 -4z"/>
<path d="M3670 661 c0 -5 9 -7 20 -4 11 3 20 7 20 9 0 2 -9 4 -20 4 -11 0 -20
-4 -20 -9z"/>
<path d="M1660 600 c23 -20 30 -24 30 -16 0 9 -32 36 -42 36 -6 0 -1 -9 12
-20z"/>
<path d="M3760 600 c0 -5 5 -10 10 -10 6 0 10 5 10 10 0 6 -4 10 -10 10 -5 0
-10 -4 -10 -10z"/>
<path d="M1715 570 c3 -5 13 -10 21 -10 8 0 14 5 14 10 0 6 -9 10 -21 10 -11
0 -17 -4 -14 -10z"/>
<path d="M3896 531 c26 -22 27 -24 6 -19 -12 4 -20 2 -17 -2 9 -14 66 -23 77
-12 8 8 4 9 -13 6 -13 -2 -18 -2 -11 2 6 3 12 10 12 15 0 6 -4 8 -9 4 -5 -3
-12 -1 -16 5 -3 5 -1 10 4 10 6 0 11 4 11 8 0 4 -16 8 -36 8 l-36 0 28 -25z"/>
<path d="M3718 533 c6 -2 18 -2 25 0 6 3 1 5 -13 5 -14 0 -19 -2 -12 -5z"/>
<path d="M1705 510 c-3 -6 1 -7 9 -4 18 7 21 14 7 14 -6 0 -13 -4 -16 -10z"/>
<path d="M1748 513 c22 -9 13 -25 -10 -18 -21 5 -21 5 -5 -6 13 -7 22 -8 29
-1 12 12 2 32 -15 31 -9 0 -9 -2 1 -6z"/>
<path d="M3637 495 c-4 -11 -10 -26 -13 -32 -4 -9 4 -13 25 -13 17 0 31 5 31
10 0 6 -6 10 -14 10 -8 0 -16 10 -18 23 -3 21 -4 21 -11 2z"/>
<path d="M3817 489 c7 -7 15 -10 18 -7 3 3 -2 9 -12 12 -14 6 -15 5 -6 -5z"/>
<path d="M3785 480 c3 -5 8 -10 11 -10 2 0 4 5 4 10 0 6 -5 10 -11 10 -5 0 -7
-4 -4 -10z"/>
<path d="M3898 473 c6 -2 18 -2 25 0 6 3 1 5 -13 5 -14 0 -19 -2 -12 -5z"/>
<path d="M3945 470 c-3 -6 1 -7 9 -4 18 7 21 14 7 14 -6 0 -13 -4 -16 -10z"/>
<path d="M3970 445 c0 -8 4 -15 10 -15 5 0 7 7 4 15 -4 8 -8 15 -10 15 -2 0
-4 -7 -4 -15z"/>
<path d="M3626 431 c-3 -4 6 -8 20 -9 13 -1 24 0 24 2 0 7 -40 14 -44 7z"/>
<path d="M3777 421 c3 -12 9 -21 14 -21 14 0 11 16 -5 29 -12 10 -13 8 -9 -8z"/>
<path d="M3465 410 c-3 -5 -2 -10 4 -10 5 0 13 5 16 10 3 6 2 10 -4 10 -5 0
-13 -4 -16 -10z"/>
<path d="M3725 410 c-18 -8 -17 -9 8 -9 15 -1 27 4 27 9 0 12 -8 12 -35 0z"/>
<path d="M3758 383 c7 -3 16 -2 19 1 4 3 -2 6 -13 5 -11 0 -14 -3 -6 -6z"/>
<path d="M3780 365 c-10 -12 -10 -15 2 -15 8 0 15 7 15 15 0 8 -1 15 -2 15 -2
0 -8 -7 -15 -15z"/>
<path d="M3826 199 c4 -7 0 -9 -12 -5 -24 7 -39 -3 -46 -31 -7 -26 4 -30 21
-9 9 11 9 15 -1 19 -7 3 2 6 20 6 21 1 32 6 32 16 0 8 -5 15 -11 15 -5 0 -7
-5 -3 -11z"/>
<path d="M3863 203 c4 -6 1 -13 -5 -16 -7 -2 3 -4 22 -4 19 -1 28 2 20 4 -8 3
-21 11 -29 17 -11 8 -13 8 -8 -1z"/>
<path d="M3989 200 c-9 -5 -24 -22 -34 -37 l-18 -28 24 21 c13 12 30 20 37 18
7 -1 8 0 2 3 -7 3 -4 10 7 19 20 15 7 18 -18 4z"/>
<path d="M4064 179 c-3 -6 0 -18 9 -26 13 -13 14 -12 10 11 -6 29 -9 31 -19
15z"/>
<path d="M2567 153 c-4 -3 -7 -11 -7 -17 0 -6 5 -5 12 2 6 6 9 14 7 17 -3 3
-9 2 -12 -2z"/>
<path d="M3955 130 c-3 -6 1 -7 9 -4 18 7 21 14 7 14 -6 0 -13 -4 -16 -10z"/>
<path d="M4040 126 c0 -19 39 -31 52 -18 8 8 4 9 -12 5 -19 -5 -22 -3 -17 10
4 11 1 17 -8 17 -8 0 -15 -6 -15 -14z"/>
<path d="M3823 118 c-22 -29 -23 -36 -3 -31 22 6 28 -12 8 -20 -8 -3 -6 -6 5
-6 9 -1 17 -8 17 -16 0 -8 4 -15 9 -15 10 0 9 32 -1 40 -4 3 -9 16 -11 28 -4
29 -12 35 -24 20z"/>
<path d="M3943 103 c9 -2 23 -2 30 0 6 3 -1 5 -18 5 -16 0 -22 -2 -12 -5z"/>
<path d="M4105 90 c-3 -5 -1 -10 4 -10 6 0 11 5 11 10 0 6 -2 10 -4 10 -3 0
-8 -4 -11 -10z"/>
<path d="M3916 82 c-2 -4 4 -8 15 -8 10 0 19 4 19 8 0 4 -6 8 -14 8 -8 0 -17
-4 -20 -8z"/>
<path d="M4165 80 c-3 -5 -1 -10 4 -10 6 0 11 5 11 10 0 6 -2 10 -4 10 -3 0
-8 -4 -11 -10z"/>
<path d="M4228 63 c6 -2 18 -2 25 0 6 3 1 5 -13 5 -14 0 -19 -2 -12 -5z"/>
<path d="M4158 23 c7 -3 16 -2 19 1 4 3 -2 6 -13 5 -11 0 -14 -3 -6 -6z"/>
</g>
</svg>
